STARTFONT 2.1
FONT -Adobe-Times-Medium-I-Normal--12-120-75-75-P-63-ISO10646-1
SIZE 12 75 75
FONTBOUNDINGBOX 16 22 -3 -6
COMMENT $Xorg: $
COMMENT ISO10646-1 extension by Markus Kuhn <mkuhn@acm.org>, 2001-03-20
COMMENT 
COMMENT +
COMMENT  Copyright 1984-1989, 1994 Adobe Systems Incorporated.
COMMENT  Copyright 1988, 1994 Digital Equipment Corporation.
COMMENT
COMMENT  Adobe is a trademark of Adobe Systems Incorporated which may be
COMMENT  registered in certain jurisdictions.
COMMENT  Permission to use these trademarks is hereby granted only in
COMMENT  association with the images described in this file.
COMMENT
COMMENT  Permission to use, copy, modify, distribute and sell this software
COMMENT  and its documentation for any purpose and without fee is hereby
COMMENT  granted, provided that the above copyright notices appear in all
COMMENT  copies and that both those copyright notices and this permission
COMMENT  notice appear in supporting documentation, and that the names of
COMMENT  Adobe Systems and Digital Equipment Corporation not be used in
COMMENT  advertising or publicity pertaining to distribution of the software
COMMENT  without specific, written prior permission.  Adobe Systems and
COMMENT  Digital Equipment Corporation make no representations about the
COMMENT  suitability of this software for any purpose.  It is provided "as
COMMENT  is" without express or implied warranty.
COMMENT -
STARTPROPERTIES 26
FOUNDRY "Adobe"
FAMILY_NAME "Times"
WEIGHT_NAME "Medium"
SLANT "I"
SETWIDTH_NAME "Normal"
ADD_STYLE_NAME ""
PIXEL_SIZE 12
POINT_SIZE 120
RESOLUTION_X 75
RESOLUTION_Y 75
SPACING "P"
AVERAGE_WIDTH 63
CHARSET_REGISTRY "ISO10646"
CHARSET_ENCODING "1"
CAP_HEIGHT 9
X_HEIGHT 6
FONT_ASCENT 11
FONT_DESCENT 3
FACE_NAME "Times Italic"
COPYRIGHT "Copyright (c) 1984, 1987 Adobe Systems Incorporated. All Rights Reserved. Copyright (c) 1988, 1991 Digital Equipment Corporation. All Rights Reserved."

STARTCHAR char0
ENCODING 0
SWIDTH 722 0
DWIDTH 9 0
BBX 9 9 -1 0
BITMAP
AA80
0000
8080
0000
8080
0000
8080
0000
AA80
ENDCHAR
STARTCHAR space
ENCODING 32
SWIDTH 250 0
DWIDTH 3 0
BBX 1 1 0 0
BITMAP
00
ENDCHAR
STARTCHAR exclam
ENCODING 33
SWIDTH 333 0
DWIDTH 4 0
BBX 3 9 1 0
BITMAP
20
20
40
40
40
80
80
00
80
ENDCHAR
STARTCHAR quotedbl
ENCODING 34
SWIDTH 420 0
DWIDTH 5 0
BBX 4 2 1 7
BITMAP
50
A0
ENDCHAR
STARTCHAR numbersign
ENCODING 35
SWIDTH 500 0
DWIDTH 6 0
BBX 7 9 -1 0
BITMAP
14
14
14
7E
28
28
FC
50
50
ENDCHAR
STARTCHAR dollar
ENCODING 36
SWIDTH 500 0
DWIDTH 6 0
BBX 6 11 0 -1
BITMAP
08
38
54
50
50
30
28
A8
A8
70
40
ENDCHAR
STARTCHAR percent
ENCODING 37
SWIDTH 833 0
DWIDTH 10 0
BBX 10 9 0 0
BITMAP
3100
6F00
CA00
9400
6580
0B40
1640
1480
2300
ENDCHAR
STARTCHAR ampersand
ENCODING 38
SWIDTH 778 0
DWIDTH 9 0
BBX 8 9 0 0
BITMAP
0C
14
14
18
33
52
8C
89
76
ENDCHAR
STARTCHAR quotesingle
ENCODING 39
SWIDTH 214 0
DWIDTH 3 0
BBX 2 2 1 7
BITMAP
40
80
ENDCHAR
STARTCHAR parenleft
ENCODING 40
SWIDTH 333 0
DWIDTH 4 0
BBX 4 12 -1 -3
BITMAP
10
20
40
40
80
80
80
80
80
40
40
20
ENDCHAR
STARTCHAR parenright
ENCODING 41
SWIDTH 333 0
DWIDTH 4 0
BBX 4 12 0 -3
BITMAP
40
20
20
10
10
10
10
10
20
20
40
80
ENDCHAR
STARTCHAR asterisk
ENCODING 42
SWIDTH 500 0
DWIDTH 6 0
BBX 5 5 1 4
BITMAP
20
A8
70
A8
20
ENDCHAR
STARTCHAR plus
ENCODING 43
SWIDTH 675 0
DWIDTH 8 0
BBX 5 5 1 1
BITMAP
20
20
F8
20
20
ENDCHAR
STARTCHAR comma
ENCODING 44
SWIDTH 250 0
DWIDTH 3 0
BBX 2 3 -1 -2
BITMAP
40
40
80
ENDCHAR
STARTCHAR hyphen
ENCODING 45
SWIDTH 333 0
DWIDTH 4 0
BBX 4 1 -1 3
BITMAP
F0
ENDCHAR
STARTCHAR period
ENCODING 46
SWIDTH 250 0
DWIDTH 3 0
BBX 1 1 0 0
BITMAP
80
ENDCHAR
STARTCHAR slash
ENCODING 47
SWIDTH 278 0
DWIDTH 4 0
BBX 4 9 0 0
BITMAP
10
10
20
20
20
40
40
80
80
ENDCHAR
STARTCHAR zero
ENCODING 48
SWIDTH 500 0
DWIDTH 6 0
BBX 6 9 0 0
BITMAP
18
24
44
44
84
88
88
90
60
ENDCHAR
STARTCHAR one
ENCODING 49
SWIDTH 500 0
DWIDTH 6 0
BBX 4 9 0 0
BITMAP
30
10
10
20
20
20
40
40
E0
ENDCHAR
STARTCHAR two
ENCODING 50
SWIDTH 500 0
DWIDTH 6 0
BBX 6 9 0 0
BITMAP
38
44
04
08
10
20
40
84
F8
ENDCHAR
STARTCHAR three
ENCODING 51
SWIDTH 500 0
DWIDTH 6 0
BBX 6 9 -1 0
BITMAP
18
24
04
08
30
08
08
90
60
ENDCHAR
STARTCHAR four
ENCODING 52
SWIDTH 500 0
DWIDTH 6 0
BBX 6 9 -1 0
BITMAP
04
0C
14
24
48
88
FC
10
10
ENDCHAR
STARTCHAR five
ENCODING 53
SWIDTH 500 0
DWIDTH 6 0
BBX 6 9 0 0
BITMAP
3C
20
40
70
08
08
08
90
E0
ENDCHAR
STARTCHAR six
ENCODING 54
SWIDTH 500 0
DWIDTH 6 0
BBX 6 9 0 0
BITMAP
0C
30
40
70
88
88
88
90
60
ENDCHAR
STARTCHAR seven
ENCODING 55
SWIDTH 500 0
DWIDTH 6 0
BBX 5 9 1 0
BITMAP
78
88
10
20
20
40
40
80
80
ENDCHAR
STARTCHAR eight
ENCODING 56
SWIDTH 500 0
DWIDTH 6 0
BBX 6 9 0 0
BITMAP
38
44
48
30
50
88
88
90
60
ENDCHAR
STARTCHAR nine
ENCODING 57
SWIDTH 500 0
DWIDTH 6 0
BBX 6 9 0 0
BITMAP
18
24
44
44
44
38
08
30
C0
ENDCHAR
STARTCHAR colon
ENCODING 58
SWIDTH 333 0
DWIDTH 4 0
BBX 2 6 1 0
BITMAP
40
00
00
00
00
80
ENDCHAR
STARTCHAR semicolon
ENCODING 59
SWIDTH 333 0
DWIDTH 4 0
BBX 3 8 0 -2
BITMAP
20
00
00
00
00
40
40
80
ENDCHAR
STARTCHAR less
ENCODING 60
SWIDTH 675 0
DWIDTH 8 0
BBX 6 7 0 0
BITMAP
04
18
60
80
60
18
04
ENDCHAR
STARTCHAR equal
ENCODING 61
SWIDTH 675 0
DWIDTH 8 0
BBX 6 3 0 2
BITMAP
FC
00
FC
ENDCHAR
STARTCHAR greater
ENCODING 62
SWIDTH 675 0
DWIDTH 8 0
BBX 6 7 1 0
BITMAP
80
60
18
04
18
60
80
ENDCHAR
STARTCHAR question
ENCODING 63
SWIDTH 500 0
DWIDTH 6 0
BBX 4 9 2 0
BITMAP
60
90
90
20
40
80
80
00
80
ENDCHAR
STARTCHAR at
ENCODING 64
SWIDTH 920 0
DWIDTH 12 0
BBX 10 10 1 -1
BITMAP
0F00
3080
4040
4D40
9240
A280
A480
9B00
4000
3C00
ENDCHAR
STARTCHAR A
ENCODING 65
SWIDTH 611 0
DWIDTH 8 0
BBX 8 9 -1 0
BITMAP
06
06
0A
12
12
3E
22
42
E7
ENDCHAR
STARTCHAR B
ENCODING 66
SWIDTH 611 0
DWIDTH 8 0
BBX 8 9 -1 0
BITMAP
3E
13
11
22
3C
22
42
46
FC
ENDCHAR
STARTCHAR C
ENCODING 67
SWIDTH 667 0
DWIDTH 7 0
BBX 8 9 0 0
BITMAP
1D
22
42
40
80
80
80
88
70
ENDCHAR
STARTCHAR D
ENCODING 68
SWIDTH 722 0
DWIDTH 9 0
BBX 9 9 0 0
BITMAP
3E00
1100
1080
2080
2080
2100
4100
4600
F800
ENDCHAR
STARTCHAR E
ENCODING 69
SWIDTH 611 0
DWIDTH 8 0
BBX 8 9 0 0
BITMAP
3F
11
10
22
3C
24
40
42
FC
ENDCHAR
STARTCHAR F
ENCODING 70
SWIDTH 611 0
DWIDTH 8 0
BBX 8 9 0 0
BITMAP
3F
11
10
22
3C
24
40
40
E0
ENDCHAR
STARTCHAR G
ENCODING 71
SWIDTH 722 0
DWIDTH 8 0
BBX 8 9 0 0
BITMAP
1D
22
42
40
80
8E
84
88
78
ENDCHAR
STARTCHAR H
ENCODING 72
SWIDTH 722 0
DWIDTH 9 0
BBX 10 9 -1 0
BITMAP
39C0
1080
1080
2100
3F00
2100
4200
4200
E700
ENDCHAR
STARTCHAR I
ENCODING 73
SWIDTH 333 0
DWIDTH 5 0
BBX 5 9 0 0
BITMAP
38
10
10
20
20
20
40
40
E0
ENDCHAR
STARTCHAR J
ENCODING 74
SWIDTH 444 0
DWIDTH 5 0
BBX 6 9 -1 0
BITMAP
1C
08
08
10
10
10
20
A0
C0
ENDCHAR
STARTCHAR K
ENCODING 75
SWIDTH 667 0
DWIDTH 8 0
BBX 9 9 -1 0
BITMAP
3B80
1100
1200
2400
3800
2800
4400
4200
E700
ENDCHAR
STARTCHAR L
ENCODING 76
SWIDTH 556 0
DWIDTH 7 0
BBX 7 9 0 0
BITMAP
38
10
10
20
20
20
40
42
FC
ENDCHAR
STARTCHAR M
ENCODING 77
SWIDTH 833 0
DWIDTH 11 0
BBX 12 9 -1 0
BITMAP
3870
1860
18C0
2940
2940
2A80
4A80
4C80
E9C0
ENDCHAR
STARTCHAR N
ENCODING 78
SWIDTH 667 0
DWIDTH 9 0
BBX 10 9 -1 0
BITMAP
31C0
1080
1080
2900
2900
2500
4600
4200
E200
ENDCHAR
STARTCHAR O
ENCODING 79
SWIDTH 722 0
DWIDTH 7 0
BBX 7 9 0 0
BITMAP
1C
22
42
42
82
84
84
88
70
ENDCHAR
STARTCHAR P
ENCODING 80
SWIDTH 611 0
DWIDTH 8 0
BBX 8 9 0 0
BITMAP
3E
11
11
22
3C
20
40
40
E0
ENDCHAR
STARTCHAR Q
ENCODING 81
SWIDTH 722 0
DWIDTH 7 0
BBX 7 11 0 -2
BITMAP
1C
22
42
42
82
84
84
88
70
42
FC
ENDCHAR
STARTCHAR R
ENCODING 82
SWIDTH 611 0
DWIDTH 8 0
BBX 8 9 -1 0
BITMAP
3E
11
11
22
3C
28
44
42
E3
ENDCHAR
STARTCHAR S
ENCODING 83
SWIDTH 500 0
DWIDTH 6 0
BBX 8 9 -1 0
BITMAP
1D
22
22
10
08
04
44
44
B8
ENDCHAR
STARTCHAR T
ENCODING 84
SWIDTH 556 0
DWIDTH 7 0
BBX 8 9 0 0
BITMAP
7F
89
08
10
10
10
20
20
70
ENDCHAR
STARTCHAR U
ENCODING 85
SWIDTH 722 0
DWIDTH 8 0
BBX 9 9 0 0
BITMAP
7380
2100
2100
4200
4200
4200
8400
8400
7800
ENDCHAR
STARTCHAR V
ENCODING 86
SWIDTH 611 0
DWIDTH 7 0
BBX 8 9 0 0
BITMAP
E7
42
44
44
48
48
50
50
60
ENDCHAR
STARTCHAR W
ENCODING 87
SWIDTH 833 0
DWIDTH 10 0
BBX 11 9 0 0
BITMAP
EEE0
4440
4C80
4C80
5500
5500
6600
6600
4400
ENDCHAR
STARTCHAR X
ENCODING 88
SWIDTH 611 0
DWIDTH 8 0
BBX 9 9 -1 0
BITMAP
7380
2100
1200
0C00
0800
1400
2400
4200
E700
ENDCHAR
STARTCHAR Y
ENCODING 89
SWIDTH 556 0
DWIDTH 7 0
BBX 8 9 0 0
BITMAP
77
22
24
28
30
20
20
40
E0
ENDCHAR
STARTCHAR Z
ENCODING 90
SWIDTH 556 0
DWIDTH 7 0
BBX 8 9 0 0
BITMAP
3F
22
04
08
10
20
40
84
FC
ENDCHAR
STARTCHAR bracketleft
ENCODING 91
SWIDTH 389 0
DWIDTH 5 0
BBX 6 11 -1 -2
BITMAP
1C
10
10
20
20
20
40
40
40
80
E0
ENDCHAR
STARTCHAR backslash
ENCODING 92
SWIDTH 278 0
DWIDTH 3 0
BBX 3 9 0 0
BITMAP
80
80
80
40
40
40
20
20
20
ENDCHAR
STARTCHAR bracketright
ENCODING 93
SWIDTH 389 0
DWIDTH 5 0
BBX 6 11 -1 -2
BITMAP
1C
04
08
08
08
10
10
10
20
20
E0
ENDCHAR
STARTCHAR asciicircum
ENCODING 94
SWIDTH 422 0
DWIDTH 5 0
BBX 5 5 0 4
BITMAP
10
30
48
48
88
ENDCHAR
STARTCHAR underscore
ENCODING 95
SWIDTH 500 0
DWIDTH 6 0
BBX 7 1 -2 -3
BITMAP
FE
ENDCHAR
STARTCHAR grave
ENCODING 96
SWIDTH 333 0
DWIDTH 4 0
BBX 2 2 2 7
BITMAP
80
40
ENDCHAR
STARTCHAR a
ENCODING 97
SWIDTH 500 0
DWIDTH 6 0
BBX 6 6 0 0
BITMAP
34
48
88
90
94
68
ENDCHAR
STARTCHAR b
ENCODING 98
SWIDTH 500 0
DWIDTH 6 0
BBX 5 9 0 0
BITMAP
60
20
40
70
48
88
88
90
E0
ENDCHAR
STARTCHAR c
ENCODING 99
SWIDTH 444 0
DWIDTH 5 0
BBX 4 6 0 0
BITMAP
30
50
80
80
90
60
ENDCHAR
STARTCHAR d
ENCODING 100
SWIDTH 500 0
DWIDTH 6 0
BBX 6 9 0 0
BITMAP
0C
04
04
38
48
88
90
94
68
ENDCHAR
STARTCHAR e
ENCODING 101
SWIDTH 444 0
DWIDTH 6 0
BBX 5 6 0 0
BITMAP
30
48
90
E0
88
70
ENDCHAR
STARTCHAR f
ENCODING 102
SWIDTH 278 0
DWIDTH 4 0
BBX 7 12 -2 -3
BITMAP
06
0A
08
1C
08
10
10
10
10
20
A0
C0
ENDCHAR
STARTCHAR g
ENCODING 103
SWIDTH 500 0
DWIDTH 5 0
BBX 6 9 -1 -3
BITMAP
3C
48
48
30
20
70
88
88
70
ENDCHAR
STARTCHAR h
ENCODING 104
SWIDTH 500 0
DWIDTH 6 0
BBX 6 9 0 0
BITMAP
60
20
40
70
48
48
90
94
98
ENDCHAR
STARTCHAR i
ENCODING 105
SWIDTH 278 0
DWIDTH 4 0
BBX 4 9 0 0
BITMAP
20
00
00
60
20
40
40
90
60
ENDCHAR
STARTCHAR j
ENCODING 106
SWIDTH 278 0
DWIDTH 4 0
BBX 5 12 -2 -3
BITMAP
08
00
00
18
08
08
10
10
10
20
A0
C0
ENDCHAR
STARTCHAR k
ENCODING 107
SWIDTH 444 0
DWIDTH 6 0
BBX 6 9 0 0
BITMAP
30
10
20
2C
50
60
50
94
88
ENDCHAR
STARTCHAR l
ENCODING 108
SWIDTH 278 0
DWIDTH 3 0
BBX 3 9 0 0
BITMAP
60
20
20
40
40
40
80
A0
40
ENDCHAR
STARTCHAR m
ENCODING 109
SWIDTH 722 0
DWIDTH 9 0
BBX 9 6 0 0
BITMAP
B600
4900
4900
9200
9280
9300
ENDCHAR
STARTCHAR n
ENCODING 110
SWIDTH 500 0
DWIDTH 6 0
BBX 6 6 0 0
BITMAP
B0
48
48
90
94
98
ENDCHAR
STARTCHAR o
ENCODING 111
SWIDTH 500 0
DWIDTH 6 0
BBX 5 6 0 0
BITMAP
30
48
88
88
90
60
ENDCHAR
STARTCHAR p
ENCODING 112
SWIDTH 500 0
DWIDTH 6 0
BBX 7 9 -2 -3
BITMAP
3C
12
12
22
24
38
40
40
E0
ENDCHAR
STARTCHAR q
ENCODING 113
SWIDTH 500 0
DWIDTH 6 0
BBX 6 9 0 -3
BITMAP
34
48
88
88
90
70
10
20
70
ENDCHAR
STARTCHAR r
ENCODING 114
SWIDTH 389 0
DWIDTH 4 0
BBX 4 6 0 0
BITMAP
B0
40
40
80
80
80
ENDCHAR
STARTCHAR s
ENCODING 115
SWIDTH 389 0
DWIDTH 5 0
BBX 4 6 0 0
BITMAP
70
90
40
20
90
E0
ENDCHAR
STARTCHAR t
ENCODING 116
SWIDTH 278 0
DWIDTH 4 0
BBX 4 7 0 0
BITMAP
20
F0
40
40
80
A0
40
ENDCHAR
STARTCHAR u
ENCODING 117
SWIDTH 500 0
DWIDTH 6 0
BBX 6 6 0 0
BITMAP
C8
48
48
90
94
68
ENDCHAR
STARTCHAR v
ENCODING 118
SWIDTH 444 0
DWIDTH 6 0
BBX 5 6 0 0
BITMAP
C8
48
50
50
60
40
ENDCHAR
STARTCHAR w
ENCODING 119
SWIDTH 667 0
DWIDTH 9 0
BBX 8 6 0 0
BITMAP
C9
49
4A
5A
6C
48
ENDCHAR
STARTCHAR x
ENCODING 120
SWIDTH 444 0
DWIDTH 6 0
BBX 7 6 -1 0
BITMAP
64
28
10
28
CA
84
ENDCHAR
STARTCHAR y
ENCODING 121
SWIDTH 444 0
DWIDTH 6 0
BBX 6 9 -1 -3
BITMAP
64
24
24
28
18
10
10
A0
C0
ENDCHAR
STARTCHAR z
ENCODING 122
SWIDTH 389 0
DWIDTH 5 0
BBX 5 6 0 0
BITMAP
78
50
20
40
90
F0
ENDCHAR
STARTCHAR braceleft
ENCODING 123
SWIDTH 400 0
DWIDTH 5 0
BBX 5 12 0 -3
BITMAP
18
20
20
20
20
C0
40
40
40
80
80
60
ENDCHAR
STARTCHAR bar
ENCODING 124
SWIDTH 275 0
DWIDTH 4 0
BBX 4 12 -1 -3
BITMAP
10
10
10
20
20
20
40
40
40
80
80
80
ENDCHAR
STARTCHAR braceright
ENCODING 125
SWIDTH 400 0
DWIDTH 5 0
BBX 5 12 -1 -3
BITMAP
30
08
08
10
10
18
20
20
20
20
20
C0
ENDCHAR
STARTCHAR asciitilde
ENCODING 126
SWIDTH 541 0
DWIDTH 7 0
BBX 5 2 1 3
BITMAP
68
B0
ENDCHAR
STARTCHAR space
ENCODING 160
SWIDTH 250 0
DWIDTH 3 0
BBX 1 1 0 0
BITMAP
00
ENDCHAR
STARTCHAR exclamdown
ENCODING 161
SWIDTH 389 0
DWIDTH 5 0
BBX 3 9 0 -3
BITMAP
20
00
20
20
40
40
40
80
80
ENDCHAR
STARTCHAR cent
ENCODING 162
SWIDTH 500 0
DWIDTH 6 0
BBX 5 10 0 -2
BITMAP
10
10
38
68
A0
A0
A8
70
40
40
ENDCHAR
STARTCHAR sterling
ENCODING 163
SWIDTH 500 0
DWIDTH 6 0
BBX 6 9 -1 0
BITMAP
0C
14
10
20
78
20
20
C4
B8
ENDCHAR
STARTCHAR currency
ENCODING 164
SWIDTH 500 0
DWIDTH 7 0
BBX 6 6 0 1
BITMAP
84
78
48
48
78
84
ENDCHAR
STARTCHAR yen
ENCODING 165
SWIDTH 500 0
DWIDTH 6 0
BBX 8 9 -1 0
BITMAP
77
22
24
28
7C
20
F8
40
E0
ENDCHAR
STARTCHAR brokenbar
ENCODING 166
SWIDTH 275 0
DWIDTH 4 0
BBX 4 12 -1 -3
BITMAP
10
10
10
20
20
00
00
40
40
80
80
80
ENDCHAR
STARTCHAR section
ENCODING 167
SWIDTH 500 0
DWIDTH 6 0
BBX 6 11 0 -2
BITMAP
18
24
24
70
58
48
68
38
90
90
60
ENDCHAR
STARTCHAR dieresis
ENCODING 168
SWIDTH 333 0
DWIDTH 4 0
BBX 3 1 1 7
BITMAP
A0
ENDCHAR
STARTCHAR copyright
ENCODING 169
SWIDTH 760 0
DWIDTH 11 0
BBX 9 9 1 0
BITMAP
1C00
6300
5D00
A480
A080
A480
5D00
6300
1C00
ENDCHAR
STARTCHAR ordfeminine
ENCODING 170
SWIDTH 276 0
DWIDTH 4 0
BBX 5 6 0 3
BITMAP
38
48
50
68
00
F0
ENDCHAR
STARTCHAR guillemotleft
ENCODING 171
SWIDTH 500 0
DWIDTH 6 0
BBX 5 5 0 1
BITMAP
28
50
A0
A0
50
ENDCHAR
STARTCHAR logicalnot
ENCODING 172
SWIDTH 675 0
DWIDTH 8 0
BBX 6 4 1 1
BITMAP
FC
04
04
04
ENDCHAR
STARTCHAR hyphen
ENCODING 173
SWIDTH 333 0
DWIDTH 4 0
BBX 4 1 -1 3
BITMAP
F0
ENDCHAR
STARTCHAR registered
ENCODING 174
SWIDTH 760 0
DWIDTH 11 0
BBX 9 9 1 0
BITMAP
1C00
6300
5D00
9280
9C80
9480
D500
6300
3C00
ENDCHAR
STARTCHAR macron
ENCODING 175
SWIDTH 333 0
DWIDTH 4 0
BBX 4 1 1 7
BITMAP
F0
ENDCHAR
STARTCHAR degree
ENCODING 176
SWIDTH 400 0
DWIDTH 5 0
BBX 4 4 0 5
BITMAP
60
90
90
60
ENDCHAR
STARTCHAR plusminus
ENCODING 177
SWIDTH 675 0
DWIDTH 8 0
BBX 5 7 1 0
BITMAP
20
20
F8
20
20
00
F8
ENDCHAR
STARTCHAR twosuperior
ENCODING 178
SWIDTH 300 0
DWIDTH 4 0
BBX 4 5 0 4
BITMAP
30
50
20
40
E0
ENDCHAR
STARTCHAR threesuperior
ENCODING 179
SWIDTH 300 0
DWIDTH 4 0
BBX 4 5 0 4
BITMAP
30
10
60
20
C0
ENDCHAR
STARTCHAR acute
ENCODING 180
SWIDTH 333 0
DWIDTH 4 0
BBX 2 2 2 7
BITMAP
40
80
ENDCHAR
STARTCHAR mu
ENCODING 181
SWIDTH 500 0
DWIDTH 6 0
BBX 7 9 -1 -3
BITMAP
64
24
24
48
4A
74
80
80
C0
ENDCHAR
STARTCHAR paragraph
ENCODING 182
SWIDTH 523 0
DWIDTH 7 0
BBX 7 11 1 -2
BITMAP
7E
F4
F4
E8
E8
50
50
50
A0
A0
A0
ENDCHAR
STARTCHAR periodcentered
ENCODING 183
SWIDTH 250 0
DWIDTH 3 0
BBX 1 1 1 3
BITMAP
80
ENDCHAR
STARTCHAR cedilla
ENCODING 184
SWIDTH 333 0
DWIDTH 4 0
BBX 3 3 0 -3
BITMAP
40
20
C0
ENDCHAR
STARTCHAR onesuperior
ENCODING 185
SWIDTH 300 0
DWIDTH 3 0
BBX 3 5 0 4
BITMAP
20
E0
40
40
E0
ENDCHAR
STARTCHAR ordmasculine
ENCODING 186
SWIDTH 310 0
DWIDTH 4 0
BBX 5 6 0 3
BITMAP
38
48
48
70
00
F0
ENDCHAR
STARTCHAR guillemotright
ENCODING 187
SWIDTH 500 0
DWIDTH 6 0
BBX 5 5 0 1
BITMAP
50
28
28
50
A0
ENDCHAR
STARTCHAR onequarter
ENCODING 188
SWIDTH 750 0
DWIDTH 9 0
BBX 8 9 0 0
BITMAP
24
E4
48
48
F2
26
2A
5F
44
ENDCHAR
STARTCHAR onehalf
ENCODING 189
SWIDTH 750 0
DWIDTH 9 0
BBX 8 9 0 0
BITMAP
24
E4
48
48
F3
25
22
44
4E
ENDCHAR
STARTCHAR threequarters
ENCODING 190
SWIDTH 750 0
DWIDTH 9 0
BBX 8 9 0 0
BITMAP
34
14
68
28
D2
26
2A
5F
44
ENDCHAR
STARTCHAR questiondown
ENCODING 191
SWIDTH 500 0
DWIDTH 6 0
BBX 4 9 0 -3
BITMAP
10
00
10
10
20
40
80
90
60
ENDCHAR
STARTCHAR Agrave
ENCODING 192
SWIDTH 611 0
DWIDTH 8 0
BBX 8 12 -1 0
BITMAP
04
02
00
06
06
0A
12
12
3E
22
42
E7
ENDCHAR
STARTCHAR Aacute
ENCODING 193
SWIDTH 611 0
DWIDTH 8 0
BBX 8 12 -1 0
BITMAP
01
02
00
06
06
0A
12
12
3E
22
42
E7
ENDCHAR
STARTCHAR Acircumflex
ENCODING 194
SWIDTH 611 0
DWIDTH 8 0
BBX 8 12 -1 0
BITMAP
03
05
00
06
06
0A
12
12
3E
22
42
E7
ENDCHAR
STARTCHAR Atilde
ENCODING 195
SWIDTH 611 0
DWIDTH 8 0
BBX 9 12 -1 0
BITMAP
0680
0B00
0000
0600
0600
0A00
1200
1200
3E00
2200
4200
E700
ENDCHAR
STARTCHAR Adieresis
ENCODING 196
SWIDTH 611 0
DWIDTH 8 0
BBX 8 11 -1 0
BITMAP
05
00
06
06
0A
12
12
3E
22
42
E7
ENDCHAR
STARTCHAR Aring
ENCODING 197
SWIDTH 611 0
DWIDTH 8 0
BBX 8 12 -1 0
BITMAP
02
05
02
06
06
0A
12
12
3E
22
42
E7
ENDCHAR
STARTCHAR AE
ENCODING 198
SWIDTH 889 0
DWIDTH 11 0
BBX 12 9 -1 0
BITMAP
07F0
0310
0500
0A20
13C0
3E40
2400
4420
EFC0
ENDCHAR
STARTCHAR Ccedilla
ENCODING 199
SWIDTH 667 0
DWIDTH 7 0
BBX 8 12 0 -3
BITMAP
1D
22
42
40
80
80
80
88
70
20
10
60
ENDCHAR
STARTCHAR Egrave
ENCODING 200
SWIDTH 611 0
DWIDTH 8 0
BBX 8 12 0 0
BITMAP
08
04
00
3F
11
10
22
3C
24
40
42
FC
ENDCHAR
STARTCHAR Eacute
ENCODING 201
SWIDTH 611 0
DWIDTH 8 0
BBX 8 12 0 0
BITMAP
02
04
00
3F
11
10
22
3C
24
40
42
FC
ENDCHAR
STARTCHAR Ecircumflex
ENCODING 202
SWIDTH 611 0
DWIDTH 8 0
BBX 8 12 0 0
BITMAP
06
0A
00
3F
11
10
22
3C
24
40
42
FC
ENDCHAR
STARTCHAR Edieresis
ENCODING 203
SWIDTH 611 0
DWIDTH 8 0
BBX 8 11 0 0
BITMAP
0A
00
3F
11
10
22
3C
24
40
42
FC
ENDCHAR
STARTCHAR Igrave
ENCODING 204
SWIDTH 333 0
DWIDTH 5 0
BBX 5 12 0 0
BITMAP
20
10
00
38
10
10
20
20
20
40
40
E0
ENDCHAR
STARTCHAR Iacute
ENCODING 205
SWIDTH 333 0
DWIDTH 5 0
BBX 5 12 0 0
BITMAP
08
10
00
38
10
10
20
20
20
40
40
E0
ENDCHAR
STARTCHAR Icircumflex
ENCODING 206
SWIDTH 333 0
DWIDTH 5 0
BBX 5 12 0 0
BITMAP
18
28
00
38
10
10
20
20
20
40
40
E0
ENDCHAR
STARTCHAR Idieresis
ENCODING 207
SWIDTH 333 0
DWIDTH 5 0
BBX 5 11 0 0
BITMAP
28
00
38
10
10
20
20
20
40
40
E0
ENDCHAR
STARTCHAR Eth
ENCODING 208
SWIDTH 722 0
DWIDTH 9 0
BBX 9 9 0 0
BITMAP
3E00
1100
1080
2080
F880
2100
4100
4600
F800
ENDCHAR
STARTCHAR Ntilde
ENCODING 209
SWIDTH 667 0
DWIDTH 9 0
BBX 10 12 -1 0
BITMAP
0680
0B00
0000
31C0
1080
1080
2900
2900
2500
4600
4200
E200
ENDCHAR
STARTCHAR Ograve
ENCODING 210
SWIDTH 722 0
DWIDTH 7 0
BBX 7 12 0 0
BITMAP
10
08
00
1C
22
42
42
82
84
84
88
70
ENDCHAR
STARTCHAR Oacute
ENCODING 211
SWIDTH 722 0
DWIDTH 7 0
BBX 7 12 0 0
BITMAP
02
04
00
1C
22
42
42
82
84
84
88
70
ENDCHAR
STARTCHAR Ocircumflex
ENCODING 212
SWIDTH 722 0
DWIDTH 7 0
BBX 7 12 0 0
BITMAP
06
0A
00
1C
22
42
42
82
84
84
88
70
ENDCHAR
STARTCHAR Otilde
ENCODING 213
SWIDTH 722 0
DWIDTH 7 0
BBX 8 12 0 0
BITMAP
0D
16
00
1C
22
42
42
82
84
84
88
70
ENDCHAR
STARTCHAR Odieresis
ENCODING 214
SWIDTH 722 0
DWIDTH 7 0
BBX 7 11 0 0
BITMAP
0A
00
1C
22
42
42
82
84
84
88
70
ENDCHAR
STARTCHAR multiply
ENCODING 215
SWIDTH 675 0
DWIDTH 8 0
BBX 5 5 1 1
BITMAP
88
50
20
50
88
ENDCHAR
STARTCHAR Oslash
ENCODING 216
SWIDTH 722 0
DWIDTH 7 0
BBX 7 11 0 -1
BITMAP
02
1C
26
4A
4A
92
A4
A4
C8
70
80
ENDCHAR
STARTCHAR Ugrave
ENCODING 217
SWIDTH 722 0
DWIDTH 8 0
BBX 9 12 0 0
BITMAP
0800
0400
0000
7380
2100
2100
4200
4200
4200
8400
8400
7800
ENDCHAR
STARTCHAR Uacute
ENCODING 218
SWIDTH 722 0
DWIDTH 8 0
BBX 9 12 0 0
BITMAP
0200
0400
0000
7380
2100
2100
4200
4200
4200
8400
8400
7800
ENDCHAR
STARTCHAR Ucircumflex
ENCODING 219
SWIDTH 722 0
DWIDTH 8 0
BBX 9 12 0 0
BITMAP
0600
0A00
0000
7380
2100
2100
4200
4200
4200
8400
8400
7800
ENDCHAR
STARTCHAR Udieresis
ENCODING 220
SWIDTH 722 0
DWIDTH 8 0
BBX 9 11 0 0
BITMAP
0A00
0000
7380
2100
2100
4200
4200
4200
8400
8400
7800
ENDCHAR
STARTCHAR Yacute
ENCODING 221
SWIDTH 556 0
DWIDTH 7 0
BBX 8 12 0 0
BITMAP
04
08
00
77
22
24
28
30
20
20
40
E0
ENDCHAR
STARTCHAR Thorn
ENCODING 222
SWIDTH 611 0
DWIDTH 8 0
BBX 8 9 0 0
BITMAP
38
10
1E
21
21
22
7C
40
E0
ENDCHAR
STARTCHAR germandbls
ENCODING 223
SWIDTH 500 0
DWIDTH 6 0
BBX 8 12 -2 -3
BITMAP
06
09
09
12
1C
12
12
3A
2C
20
A0
C0
ENDCHAR
STARTCHAR agrave
ENCODING 224
SWIDTH 500 0
DWIDTH 7 0
BBX 6 9 0 0
BITMAP
20
10
00
34
48
88
90
94
68
ENDCHAR
STARTCHAR aacute
ENCODING 225
SWIDTH 500 0
DWIDTH 7 0
BBX 6 9 0 0
BITMAP
08
10
00
34
48
88
90
94
68
ENDCHAR
STARTCHAR acircumflex
ENCODING 226
SWIDTH 500 0
DWIDTH 7 0
BBX 6 9 0 0
BITMAP
18
28
00
34
48
88
90
94
68
ENDCHAR
STARTCHAR atilde
ENCODING 227
SWIDTH 500 0
DWIDTH 7 0
BBX 7 9 0 0
BITMAP
1A
2C
00
34
48
88
90
94
68
ENDCHAR
STARTCHAR adieresis
ENCODING 228
SWIDTH 500 0
DWIDTH 7 0
BBX 6 8 0 0
BITMAP
28
00
34
48
88
90
94
68
ENDCHAR
STARTCHAR aring
ENCODING 229
SWIDTH 500 0
DWIDTH 7 0
BBX 6 9 0 0
BITMAP
10
28
10
34
48
88
90
94
68
ENDCHAR
STARTCHAR ae
ENCODING 230
SWIDTH 667 0
DWIDTH 9 0
BBX 8 6 0 0
BITMAP
3E
49
8E
98
A9
CE
ENDCHAR
STARTCHAR ccedilla
ENCODING 231
SWIDTH 444 0
DWIDTH 5 0
BBX 4 9 0 -3
BITMAP
30
50
80
80
90
60
40
20
C0
ENDCHAR
STARTCHAR egrave
ENCODING 232
SWIDTH 444 0
DWIDTH 6 0
BBX 5 9 0 0
BITMAP
40
20
00
30
48
90
E0
88
70
ENDCHAR
STARTCHAR eacute
ENCODING 233
SWIDTH 444 0
DWIDTH 6 0
BBX 5 9 0 0
BITMAP
08
10
00
30
48
90
E0
88
70
ENDCHAR
STARTCHAR ecircumflex
ENCODING 234
SWIDTH 444 0
DWIDTH 6 0
BBX 5 9 0 0
BITMAP
18
28
00
30
48
90
E0
88
70
ENDCHAR
STARTCHAR edieresis
ENCODING 235
SWIDTH 444 0
DWIDTH 6 0
BBX 5 8 0 0
BITMAP
28
00
30
48
90
E0
88
70
ENDCHAR
STARTCHAR igrave
ENCODING 236
SWIDTH 278 0
DWIDTH 4 0
BBX 4 9 0 0
BITMAP
40
20
00
60
20
40
40
90
60
ENDCHAR
STARTCHAR iacute
ENCODING 237
SWIDTH 278 0
DWIDTH 4 0
BBX 4 9 0 0
BITMAP
10
20
00
60
20
40
40
90
60
ENDCHAR
STARTCHAR icircumflex
ENCODING 238
SWIDTH 278 0
DWIDTH 4 0
BBX 4 9 0 0
BITMAP
30
50
00
60
20
40
40
90
60
ENDCHAR
STARTCHAR idieresis
ENCODING 239
SWIDTH 278 0
DWIDTH 4 0
BBX 4 8 0 0
BITMAP
50
00
60
20
40
40
90
60
ENDCHAR
STARTCHAR eth
ENCODING 240
SWIDTH 500 0
DWIDTH 6 0
BBX 5 9 0 0
BITMAP
20
38
50
30
48
88
88
90
60
ENDCHAR
STARTCHAR ntilde
ENCODING 241
SWIDTH 500 0
DWIDTH 6 0
BBX 6 9 0 0
BITMAP
34
58
00
B0
48
48
90
94
98
ENDCHAR
STARTCHAR ograve
ENCODING 242
SWIDTH 500 0
DWIDTH 6 0
BBX 5 9 0 0
BITMAP
20
10
00
30
48
88
88
90
60
ENDCHAR
STARTCHAR oacute
ENCODING 243
SWIDTH 500 0
DWIDTH 6 0
BBX 5 9 0 0
BITMAP
08
10
00
30
48
88
88
90
60
ENDCHAR
STARTCHAR ocircumflex
ENCODING 244
SWIDTH 500 0
DWIDTH 6 0
BBX 5 9 0 0
BITMAP
18
28
00
30
48
88
88
90
60
ENDCHAR
STARTCHAR otilde
ENCODING 245
SWIDTH 500 0
DWIDTH 6 0
BBX 6 9 0 0
BITMAP
34
58
00
30
48
88
88
90
60
ENDCHAR
STARTCHAR odieresis
ENCODING 246
SWIDTH 500 0
DWIDTH 6 0
BBX 5 8 0 0
BITMAP
28
00
30
48
88
88
90
60
ENDCHAR
STARTCHAR divide
ENCODING 247
SWIDTH 675 0
DWIDTH 8 0
BBX 5 5 1 1
BITMAP
20
00
F8
00
20
ENDCHAR
STARTCHAR oslash
ENCODING 248
SWIDTH 500 0
DWIDTH 6 0
BBX 5 8 0 -1
BITMAP
08
30
48
88
88
90
60
80
ENDCHAR
STARTCHAR ugrave
ENCODING 249
SWIDTH 500 0
DWIDTH 6 0
BBX 6 9 0 0
BITMAP
20
10
00
C8
48
48
90
94
68
ENDCHAR
STARTCHAR uacute
ENCODING 250
SWIDTH 500 0
DWIDTH 6 0
BBX 6 9 0 0
BITMAP
08
10
00
C8
48
48
90
94
68
ENDCHAR
STARTCHAR ucircumflex
ENCODING 251
SWIDTH 500 0
DWIDTH 6 0
BBX 6 9 0 0
BITMAP
18
28
00
C8
48
48
90
94
68
ENDCHAR
STARTCHAR udieresis
ENCODING 252
SWIDTH 500 0
DWIDTH 6 0
BBX 6 8 0 0
BITMAP
28
00
C8
48
48
90
94
68
ENDCHAR
STARTCHAR yacute
ENCODING 253
SWIDTH 444 0
DWIDTH 6 0
BBX 6 12 -1 -3
BITMAP
04
08
00
64
24
24
28
18
10
10
A0
C0
ENDCHAR
STARTCHAR thorn
ENCODING 254
SWIDTH 500 0
DWIDTH 6 0
BBX 7 12 -2 -3
BITMAP
18
08
08
1C
12
12
22
24
38
40
40
E0
ENDCHAR
STARTCHAR ydieresis
ENCODING 255
SWIDTH 444 0
DWIDTH 6 0
BBX 6 11 -1 -3
BITMAP
14
00
64
24
28
28
18
10
10
A0
C0
ENDCHAR
STARTCHAR Amacron
ENCODING 256
SWIDTH 611 0
DWIDTH 8 0
BBX 8 11 -1 0
BITMAP
1E
00
06
06
0A
12
12
3E
22
42
E7
ENDCHAR
STARTCHAR amacron
ENCODING 257
SWIDTH 500 0
DWIDTH 6 0
BBX 6 8 0 0
BITMAP
78
00
34
48
88
90
94
68
ENDCHAR
STARTCHAR Abreve
ENCODING 258
SWIDTH 611 0
DWIDTH 8 0
BBX 8 13 -1 0
BITMAP
12
12
0C
00
06
06
0A
12
12
3E
22
42
E7
ENDCHAR
STARTCHAR abreve
ENCODING 259
SWIDTH 500 0
DWIDTH 6 0
BBX 6 10 0 0
BITMAP
48
48
30
00
34
48
88
90
94
68
ENDCHAR
STARTCHAR Aogonek
ENCODING 260
SWIDTH 611 0
DWIDTH 8 0
BBX 8 12 -1 -3
BITMAP
06
06
0A
12
12
3E
22
42
E7
10
24
38
ENDCHAR
STARTCHAR aogonek
ENCODING 261
SWIDTH 500 0
DWIDTH 6 0
BBX 6 9 0 -3
BITMAP
34
48
88
90
94
68
20
48
70
ENDCHAR
STARTCHAR Cacute
ENCODING 262
SWIDTH 667 0
DWIDTH 7 0
BBX 8 12 0 0
BITMAP
04
08
00
1D
22
42
40
80
80
80
88
70
ENDCHAR
STARTCHAR cacute
ENCODING 263
SWIDTH 444 0
DWIDTH 5 0
BBX 4 9 0 0
BITMAP
10
20
00
30
50
80
80
90
60
ENDCHAR
STARTCHAR Ccircumflex
ENCODING 264
SWIDTH 667 0
DWIDTH 7 0
BBX 8 12 0 0
BITMAP
0C
14
00
1D
22
42
40
80
80
80
88
70
ENDCHAR
STARTCHAR ccircumflex
ENCODING 265
SWIDTH 444 0
DWIDTH 5 0
BBX 4 9 0 0
BITMAP
30
50
00
30
50
80
80
90
60
ENDCHAR
STARTCHAR Cdotaccent
ENCODING 266
SWIDTH 667 0
DWIDTH 7 0
BBX 8 11 0 0
BITMAP
08
00
1D
22
42
40
80
80
80
88
70
ENDCHAR
STARTCHAR cdotaccent
ENCODING 267
SWIDTH 444 0
DWIDTH 5 0
BBX 4 8 0 0
BITMAP
20
00
30
50
80
80
90
60
ENDCHAR
STARTCHAR Ccaron
ENCODING 268
SWIDTH 667 0
DWIDTH 7 0
BBX 8 12 0 0
BITMAP
12
1C
00
1D
22
42
40
80
80
80
88
70
ENDCHAR
STARTCHAR ccaron
ENCODING 269
SWIDTH 444 0
DWIDTH 5 0
BBX 5 9 0 0
BITMAP
48
70
00
30
50
80
80
90
60
ENDCHAR
STARTCHAR Dcaron
ENCODING 270
SWIDTH 722 0
DWIDTH 9 0
BBX 9 12 0 0
BITMAP
1200
1C00
0000
3E00
1100
1080
2080
2080
2100
4100
4600
F800
ENDCHAR
STARTCHAR dcaron
ENCODING 271
SWIDTH 808 0
DWIDTH 10 0
BBX 10 9 0 0
BITMAP
0C40
0440
0480
3800
4800
8800
9000
9400
6800
ENDCHAR
STARTCHAR Dcroat
ENCODING 272
SWIDTH 722 0
DWIDTH 9 0
BBX 9 9 0 0
BITMAP
3E00
1100
1080
2080
F880
2100
4100
4600
F800
ENDCHAR
STARTCHAR dcroat
ENCODING 273
SWIDTH 500 0
DWIDTH 6 0
BBX 7 9 0 0
BITMAP
0C
04
3E
38
48
88
90
94
68
ENDCHAR
STARTCHAR Emacron
ENCODING 274
SWIDTH 611 0
DWIDTH 8 0
BBX 8 11 0 0
BITMAP
1E
00
3F
11
10
22
3C
24
40
42
FC
ENDCHAR
STARTCHAR emacron
ENCODING 275
SWIDTH 444 0
DWIDTH 6 0
BBX 5 8 0 0
BITMAP
78
00
30
48
90
E0
88
70
ENDCHAR
STARTCHAR Ebreve
ENCODING 276
SWIDTH 611 0
DWIDTH 8 0
BBX 8 13 0 0
BITMAP
12
12
0C
00
3F
11
10
22
3C
24
40
42
FC
ENDCHAR
STARTCHAR ebreve
ENCODING 277
SWIDTH 444 0
DWIDTH 6 0
BBX 5 10 0 0
BITMAP
48
48
30
00
30
48
90
E0
88
70
ENDCHAR
STARTCHAR Edotaccent
ENCODING 278
SWIDTH 611 0
DWIDTH 8 0
BBX 8 11 0 0
BITMAP
08
00
3F
11
10
22
3C
24
40
42
FC
ENDCHAR
STARTCHAR edotaccent
ENCODING 279
SWIDTH 444 0
DWIDTH 6 0
BBX 5 8 0 0
BITMAP
20
00
30
48
90
E0
88
70
ENDCHAR
STARTCHAR Eogonek
ENCODING 280
SWIDTH 611 0
DWIDTH 8 0
BBX 8 12 0 -3
BITMAP
3F
11
10
22
3C
24
40
42
FC
10
24
38
ENDCHAR
STARTCHAR eogonek
ENCODING 281
SWIDTH 444 0
DWIDTH 6 0
BBX 5 9 0 -3
BITMAP
30
48
90
E0
88
70
20
48
70
ENDCHAR
STARTCHAR Ecaron
ENCODING 282
SWIDTH 611 0
DWIDTH 8 0
BBX 8 12 0 0
BITMAP
12
1C
00
3F
11
10
22
3C
24
40
42
FC
ENDCHAR
STARTCHAR ecaron
ENCODING 283
SWIDTH 444 0
DWIDTH 6 0
BBX 5 9 0 0
BITMAP
48
70
00
30
48
90
E0
88
70
ENDCHAR
STARTCHAR Gcircumflex
ENCODING 284
SWIDTH 722 0
DWIDTH 8 0
BBX 8 12 0 0
BITMAP
0C
14
00
1D
22
42
40
80
8E
84
88
78
ENDCHAR
STARTCHAR gcircumflex
ENCODING 285
SWIDTH 500 0
DWIDTH 5 0
BBX 6 12 -1 -3
BITMAP
18
28
00
3C
48
48
30
20
70
88
88
70
ENDCHAR
STARTCHAR Gbreve
ENCODING 286
SWIDTH 722 0
DWIDTH 8 0
BBX 8 13 0 0
BITMAP
12
12
0C
00
1D
22
42
40
80
8E
84
88
78
ENDCHAR
STARTCHAR gbreve
ENCODING 287
SWIDTH 500 0
DWIDTH 5 0
BBX 6 13 -1 -3
BITMAP
48
48
30
00
3C
48
48
30
20
70
88
88
70
ENDCHAR
STARTCHAR Gdotaccent
ENCODING 288
SWIDTH 722 0
DWIDTH 8 0
BBX 8 11 0 0
BITMAP
08
00
1D
22
42
40
80
8E
84
88
78
ENDCHAR
STARTCHAR gdotaccent
ENCODING 289
SWIDTH 500 0
DWIDTH 5 0
BBX 6 11 -1 -3
BITMAP
10
00
3C
48
48
30
20
70
88
88
70
ENDCHAR
STARTCHAR Gcommaaccent
ENCODING 290
SWIDTH 722 0
DWIDTH 8 0
BBX 8 13 0 -4
BITMAP
1D
22
42
40
80
8E
84
88
78
00
10
10
20
ENDCHAR
STARTCHAR gcommaaccent
ENCODING 291
SWIDTH 500 0
DWIDTH 5 0
BBX 6 13 -1 -3
BITMAP
08
10
10
00
3C
48
48
30
20
70
88
88
70
ENDCHAR
STARTCHAR Hcircumflex
ENCODING 292
SWIDTH 722 0
DWIDTH 9 0
BBX 10 12 -1 0
BITMAP
0600
0A00
0000
39C0
1080
1080
2100
3F00
2100
4200
4200
E700
ENDCHAR
STARTCHAR hcircumflex
ENCODING 293
SWIDTH 500 0
DWIDTH 6 0
BBX 6 12 0 0
BITMAP
30
50
00
60
20
40
70
48
48
90
94
98
ENDCHAR
STARTCHAR Hbar
ENCODING 294
SWIDTH 722 0
DWIDTH 9 0
BBX 10 9 -1 0
BITMAP
39C0
1080
FFC0
2100
3F00
2100
4200
4200
E700
ENDCHAR
STARTCHAR hbar
ENCODING 295
SWIDTH 500 0
DWIDTH 6 0
BBX 6 9 0 0
BITMAP
60
20
F8
70
48
48
90
94
98
ENDCHAR
STARTCHAR Itilde
ENCODING 296
SWIDTH 333 0
DWIDTH 5 0
BBX 6 12 0 0
BITMAP
34
58
00
38
10
10
20
20
20
40
40
E0
ENDCHAR
STARTCHAR itilde
ENCODING 297
SWIDTH 278 0
DWIDTH 4 0
BBX 5 9 0 0
BITMAP
68
B0
00
60
20
40
40
90
60
ENDCHAR
STARTCHAR Imacron
ENCODING 298
SWIDTH 333 0
DWIDTH 5 0
BBX 5 11 0 0
BITMAP
78
00
38
10
10
20
20
20
40
40
E0
ENDCHAR
STARTCHAR imacron
ENCODING 299
SWIDTH 278 0
DWIDTH 4 0
BBX 4 8 0 0
BITMAP
F0
00
60
20
40
40
90
60
ENDCHAR
STARTCHAR Ibreve
ENCODING 300
SWIDTH 333 0
DWIDTH 5 0
BBX 5 13 0 0
BITMAP
48
48
30
00
38
10
10
20
20
20
40
40
E0
ENDCHAR
STARTCHAR ibreve
ENCODING 301
SWIDTH 278 0
DWIDTH 4 0
BBX 4 10 0 0
BITMAP
90
90
60
00
60
20
40
40
90
60
ENDCHAR
STARTCHAR Iogonek
ENCODING 302
SWIDTH 333 0
DWIDTH 5 0
BBX 5 12 0 -3
BITMAP
38
10
10
20
20
20
40
40
E0
40
90
E0
ENDCHAR
STARTCHAR iogonek
ENCODING 303
SWIDTH 278 0
DWIDTH 4 0
BBX 4 12 0 -3
BITMAP
20
00
00
60
20
40
40
90
60
40
90
E0
ENDCHAR
STARTCHAR Idotaccent
ENCODING 304
SWIDTH 333 0
DWIDTH 5 0
BBX 5 11 0 0
BITMAP
10
00
38
10
10
20
20
20
40
40
E0
ENDCHAR
STARTCHAR dotlessi
ENCODING 305
SWIDTH 278 0
DWIDTH 4 0
BBX 4 6 0 0
BITMAP
60
20
40
40
90
60
ENDCHAR
STARTCHAR IJ
ENCODING 306
SWIDTH 760 0
DWIDTH 10 0
BBX 10 9 0 0
BITMAP
39C0
1080
1080
2100
2100
2100
4200
4A00
EC00
ENDCHAR
STARTCHAR ij
ENCODING 307
SWIDTH 542 0
DWIDTH 8 0
BBX 7 12 0 -3
BITMAP
22
00
00
66
22
42
44
94
64
08
28
30
ENDCHAR
STARTCHAR Jcircumflex
ENCODING 308
SWIDTH 444 0
DWIDTH 5 0
BBX 6 12 -1 0
BITMAP
0C
14
00
1C
08
08
10
10
10
20
A0
C0
ENDCHAR
STARTCHAR jcircumflex
ENCODING 309
SWIDTH 278 0
DWIDTH 4 0
BBX 5 12 -2 -3
BITMAP
18
28
00
18
08
08
10
10
10
20
A0
C0
ENDCHAR
STARTCHAR Kcommaaccent
ENCODING 310
SWIDTH 667 0
DWIDTH 8 0
BBX 9 13 -1 -4
BITMAP
3B80
1100
1200
2400
3800
2800
4400
4200
E700
0000
0800
0800
1000
ENDCHAR
STARTCHAR kcommaaccent
ENCODING 311
SWIDTH 444 0
DWIDTH 6 0
BBX 6 13 0 -4
BITMAP
30
10
20
2C
50
60
50
94
88
00
10
10
20
ENDCHAR
STARTCHAR kgreenlandic
ENCODING 312
SWIDTH 444 0
DWIDTH 6 0
BBX 6 6 0 0
BITMAP
2C
50
60
50
94
88
ENDCHAR
STARTCHAR Lacute
ENCODING 313
SWIDTH 556 0
DWIDTH 7 0
BBX 7 12 0 0
BITMAP
08
10
00
38
10
10
20
20
20
40
42
FC
ENDCHAR
STARTCHAR lacute
ENCODING 314
SWIDTH 278 0
DWIDTH 3 0
BBX 3 12 0 0
BITMAP
20
40
00
60
20
20
40
40
40
80
A0
40
ENDCHAR
STARTCHAR Lcommaaccent
ENCODING 315
SWIDTH 556 0
DWIDTH 7 0
BBX 7 13 0 -4
BITMAP
38
10
10
20
20
20
40
42
FC
00
10
10
20
ENDCHAR
STARTCHAR lcommaaccent
ENCODING 316
SWIDTH 278 0
DWIDTH 3 0
BBX 3 13 0 -4
BITMAP
60
20
20
40
40
40
80
A0
40
00
40
40
80
ENDCHAR
STARTCHAR Lcaron
ENCODING 317
SWIDTH 861 0
DWIDTH 11 0
BBX 11 9 0 0
BITMAP
3820
1020
1040
2000
2000
2000
4000
4200
FC00
ENDCHAR
STARTCHAR lcaron
ENCODING 318
SWIDTH 597 0
DWIDTH 7 0
BBX 7 9 0 0
BITMAP
62
22
24
40
40
40
80
A0
40
ENDCHAR
STARTCHAR Ldot
ENCODING 319
SWIDTH 778 0
DWIDTH 10 0
BBX 9 9 0 0
BITMAP
3800
1000
1000
2000
2000
2080
4000
4200
FC00
ENDCHAR
STARTCHAR ldot
ENCODING 320
SWIDTH 514 0
DWIDTH 6 0
BBX 5 9 0 0
BITMAP
60
20
20
40
40
48
80
A0
40
ENDCHAR
STARTCHAR Lslash
ENCODING 321
SWIDTH 556 0
DWIDTH 7 0
BBX 7 9 0 0
BITMAP
38
10
14
78
A0
20
40
42
FC
ENDCHAR
STARTCHAR lslash
ENCODING 322
SWIDTH 278 0
DWIDTH 3 0
BBX 5 9 0 0
BITMAP
60
20
28
70
C0
40
80
A0
40
ENDCHAR
STARTCHAR Nacute
ENCODING 323
SWIDTH 667 0
DWIDTH 9 0
BBX 10 12 -1 0
BITMAP
0200
0400
0000
31C0
1080
1080
2900
2900
2500
4600
4200
E200
ENDCHAR
STARTCHAR nacute
ENCODING 324
SWIDTH 500 0
DWIDTH 6 0
BBX 6 9 0 0
BITMAP
10
20
00
B0
48
48
90
94
98
ENDCHAR
STARTCHAR Ncommaaccent
ENCODING 325
SWIDTH 667 0
DWIDTH 9 0
BBX 10 13 -1 -4
BITMAP
31C0
1080
1080
2900
2900
2500
4600
4200
E200
0000
0800
0800
1000
ENDCHAR
STARTCHAR ncommaaccent
ENCODING 326
SWIDTH 500 0
DWIDTH 6 0
BBX 6 10 0 -4
BITMAP
B0
48
48
90
94
98
00
10
10
20
ENDCHAR
STARTCHAR Ncaron
ENCODING 327
SWIDTH 667 0
DWIDTH 9 0
BBX 10 12 -1 0
BITMAP
0900
0E00
0000
31C0
1080
1080
2900
2900
2500
4600
4200
E200
ENDCHAR
STARTCHAR ncaron
ENCODING 328
SWIDTH 500 0
DWIDTH 6 0
BBX 6 9 0 0
BITMAP
48
70
00
B0
48
48
90
94
98
ENDCHAR
STARTCHAR napostrophe
ENCODING 329
SWIDTH 816 0
DWIDTH 10 0
BBX 8 9 2 0
BITMAP
40
40
80
2C
12
12
24
25
26
ENDCHAR
STARTCHAR Eng
ENCODING 330
SWIDTH 667 0
DWIDTH 9 0
BBX 10 12 -1 -3
BITMAP
31C0
1080
1080
2900
2900
2500
4600
4200
E200
0400
1400
1800
ENDCHAR
STARTCHAR eng
ENCODING 331
SWIDTH 500 0
DWIDTH 6 0
BBX 5 9 0 -3
BITMAP
B0
48
48
90
90
90
20
A0
C0
ENDCHAR
STARTCHAR Omacron
ENCODING 332
SWIDTH 722 0
DWIDTH 7 0
BBX 7 11 0 0
BITMAP
3C
00
1C
22
42
42
82
84
84
88
70
ENDCHAR
STARTCHAR omacron
ENCODING 333
SWIDTH 500 0
DWIDTH 6 0
BBX 5 8 0 0
BITMAP
78
00
30
48
88
88
90
60
ENDCHAR
STARTCHAR Obreve
ENCODING 334
SWIDTH 722 0
DWIDTH 7 0
BBX 7 13 0 0
BITMAP
24
24
18
00
1C
22
42
42
82
84
84
88
70
ENDCHAR
STARTCHAR obreve
ENCODING 335
SWIDTH 500 0
DWIDTH 6 0
BBX 5 10 0 0
BITMAP
48
48
30
00
30
48
88
88
90
60
ENDCHAR
STARTCHAR Ohungarumlaut
ENCODING 336
SWIDTH 722 0
DWIDTH 7 0
BBX 7 12 0 0
BITMAP
14
28
00
1C
22
42
42
82
84
84
88
70
ENDCHAR
STARTCHAR ohungarumlaut
ENCODING 337
SWIDTH 500 0
DWIDTH 6 0
BBX 5 9 0 0
BITMAP
28
50
00
30
48
88
88
90
60
ENDCHAR
STARTCHAR OE
ENCODING 338
SWIDTH 944 0
DWIDTH 11 0
BBX 11 9 0 0
BITMAP
1FE0
2220
4200
4440
8780
8480
8800
8840
7F80
ENDCHAR
STARTCHAR oe
ENCODING 339
SWIDTH 667 0
DWIDTH 9 0
BBX 8 6 0 0
BITMAP
36
49
8E
88
99
6E
ENDCHAR
STARTCHAR Racute
ENCODING 340
SWIDTH 611 0
DWIDTH 8 0
BBX 8 12 -1 0
BITMAP
04
08
00
3E
11
11
22
3C
28
44
42
E3
ENDCHAR
STARTCHAR racute
ENCODING 341
SWIDTH 389 0
DWIDTH 4 0
BBX 4 9 0 0
BITMAP
20
40
00
B0
40
40
80
80
80
ENDCHAR
STARTCHAR Rcommaaccent
ENCODING 342
SWIDTH 611 0
DWIDTH 8 0
BBX 8 13 -1 -4
BITMAP
3E
11
11
22
3C
28
44
42
E3
00
10
10
20
ENDCHAR
STARTCHAR rcommaaccent
ENCODING 343
SWIDTH 389 0
DWIDTH 4 0
BBX 4 10 0 -4
BITMAP
B0
40
40
80
80
80
00
40
40
80
ENDCHAR
STARTCHAR Rcaron
ENCODING 344
SWIDTH 611 0
DWIDTH 8 0
BBX 8 12 -1 0
BITMAP
12
1C
00
3E
11
11
22
3C
28
44
42
E3
ENDCHAR
STARTCHAR rcaron
ENCODING 345
SWIDTH 389 0
DWIDTH 4 0
BBX 4 9 0 0
BITMAP
90
E0
00
B0
40
40
80
80
80
ENDCHAR
STARTCHAR Sacute
ENCODING 346
SWIDTH 500 0
DWIDTH 6 0
BBX 8 12 -1 0
BITMAP
04
08
00
1D
22
22
10
08
04
44
44
B8
ENDCHAR
STARTCHAR sacute
ENCODING 347
SWIDTH 389 0
DWIDTH 5 0
BBX 4 9 0 0
BITMAP
10
20
00
70
90
40
20
90
E0
ENDCHAR
STARTCHAR Scircumflex
ENCODING 348
SWIDTH 500 0
DWIDTH 6 0
BBX 8 12 -1 0
BITMAP
0C
14
00
1D
22
22
10
08
04
44
44
B8
ENDCHAR
STARTCHAR scircumflex
ENCODING 349
SWIDTH 389 0
DWIDTH 5 0
BBX 4 9 0 0
BITMAP
30
50
00
70
90
40
20
90
E0
ENDCHAR
STARTCHAR Scedilla
ENCODING 350
SWIDTH 500 0
DWIDTH 6 0
BBX 8 12 -1 -3
BITMAP
1D
22
22
10
08
04
44
44
B8
10
08
30
ENDCHAR
STARTCHAR scedilla
ENCODING 351
SWIDTH 389 0
DWIDTH 5 0
BBX 4 9 0 -3
BITMAP
70
90
40
20
90
E0
40
20
C0
ENDCHAR
STARTCHAR Scaron
ENCODING 352
SWIDTH 500 0
DWIDTH 6 0
BBX 8 12 -1 0
BITMAP
0A
0C
00
1D
22
22
10
08
04
44
44
B8
ENDCHAR
STARTCHAR scaron
ENCODING 353
SWIDTH 389 0
DWIDTH 5 0
BBX 4 9 0 0
BITMAP
50
60
00
70
90
40
20
90
E0
ENDCHAR
STARTCHAR Tcommaaccent
ENCODING 354
SWIDTH 556 0
DWIDTH 7 0
BBX 8 12 0 -3
BITMAP
7F
89
08
10
10
10
20
20
70
10
08
30
ENDCHAR
STARTCHAR tcommaaccent
ENCODING 355
SWIDTH 278 0
DWIDTH 4 0
BBX 4 10 0 -3
BITMAP
20
F0
40
40
80
A0
40
40
20
C0
ENDCHAR
STARTCHAR Tcaron
ENCODING 356
SWIDTH 556 0
DWIDTH 7 0
BBX 8 12 0 0
BITMAP
12
1C
00
7F
89
08
10
10
10
20
20
70
ENDCHAR
STARTCHAR tcaron
ENCODING 357
SWIDTH 597 0
DWIDTH 8 0
BBX 8 9 0 0
BITMAP
01
01
22
F0
40
40
80
A0
40
ENDCHAR
STARTCHAR Tbar
ENCODING 358
SWIDTH 556 0
DWIDTH 7 0
BBX 8 9 0 0
BITMAP
7F
89
08
10
3E
10
20
20
70
ENDCHAR
STARTCHAR tbar
ENCODING 359
SWIDTH 278 0
DWIDTH 4 0
BBX 5 7 0 0
BITMAP
20
F0
40
F8
80
A0
40
ENDCHAR
STARTCHAR Utilde
ENCODING 360
SWIDTH 722 0
DWIDTH 8 0
BBX 9 12 0 0
BITMAP
0D00
1600
0000
7380
2100
2100
4200
4200
4200
8400
8400
7800
ENDCHAR
STARTCHAR utilde
ENCODING 361
SWIDTH 500 0
DWIDTH 6 0
BBX 6 9 0 0
BITMAP
68
B0
00
C8
48
48
90
94
68
ENDCHAR
STARTCHAR Umacron
ENCODING 362
SWIDTH 722 0
DWIDTH 8 0
BBX 9 11 0 0
BITMAP
1E00
0000
7380
2100
2100
4200
4200
4200
8400
8400
7800
ENDCHAR
STARTCHAR umacron
ENCODING 363
SWIDTH 500 0
DWIDTH 6 0
BBX 6 8 0 0
BITMAP
78
00
C8
48
48
90
94
68
ENDCHAR
STARTCHAR Ubreve
ENCODING 364
SWIDTH 722 0
DWIDTH 8 0
BBX 9 13 0 0
BITMAP
1200
1200
0C00
0000
7380
2100
2100
4200
4200
4200
8400
8400
7800
ENDCHAR
STARTCHAR ubreve
ENCODING 365
SWIDTH 500 0
DWIDTH 6 0
BBX 6 10 0 0
BITMAP
48
48
30
00
C8
48
48
90
94
68
ENDCHAR
STARTCHAR Uring
ENCODING 366
SWIDTH 722 0
DWIDTH 8 0
BBX 9 13 0 0
BITMAP
0800
1400
0800
0000
7380
2100
2100
4200
4200
4200
8400
8400
7800
ENDCHAR
STARTCHAR uring
ENCODING 367
SWIDTH 500 0
DWIDTH 6 0
BBX 6 10 0 0
BITMAP
20
50
20
00
C8
48
48
90
94
68
ENDCHAR
STARTCHAR Uhungarumlaut
ENCODING 368
SWIDTH 722 0
DWIDTH 8 0
BBX 9 12 0 0
BITMAP
0A00
1400
0000
7380
2100
2100
4200
4200
4200
8400
8400
7800
ENDCHAR
STARTCHAR uhungarumlaut
ENCODING 369
SWIDTH 500 0
DWIDTH 6 0
BBX 6 9 0 0
BITMAP
28
50
00
C8
48
48
90
94
68
ENDCHAR
STARTCHAR Uogonek
ENCODING 370
SWIDTH 722 0
DWIDTH 8 0
BBX 9 12 0 -3
BITMAP
7380
2100
2100
4200
4200
4200
8400
8400
7800
1000
2400
3800
ENDCHAR
STARTCHAR uogonek
ENCODING 371
SWIDTH 500 0
DWIDTH 6 0
BBX 6 9 0 -3
BITMAP
C8
48
48
90
94
68
20
48
70
ENDCHAR
STARTCHAR Wcircumflex
ENCODING 372
SWIDTH 833 0
DWIDTH 10 0
BBX 11 12 0 0
BITMAP
0600
0A00
0000
EEE0
4440
4C80
4C80
5500
5500
6600
6600
4400
ENDCHAR
STARTCHAR wcircumflex
ENCODING 373
SWIDTH 667 0
DWIDTH 9 0
BBX 8 9 0 0
BITMAP
18
28
00
C9
49
4A
5A
6C
48
ENDCHAR
STARTCHAR Ycircumflex
ENCODING 374
SWIDTH 556 0
DWIDTH 7 0
BBX 8 12 0 0
BITMAP
0C
14
00
77
22
24
28
30
20
20
40
E0
ENDCHAR
STARTCHAR ycircumflex
ENCODING 375
SWIDTH 444 0
DWIDTH 6 0
BBX 6 12 -1 -3
BITMAP
18
28
00
64
24
24
28
18
10
10
A0
C0
ENDCHAR
STARTCHAR Ydieresis
ENCODING 376
SWIDTH 556 0
DWIDTH 7 0
BBX 8 11 0 0
BITMAP
14
00
77
22
24
28
30
20
20
40
E0
ENDCHAR
STARTCHAR Zacute
ENCODING 377
SWIDTH 556 0
DWIDTH 7 0
BBX 8 12 0 0
BITMAP
04
08
00
3F
22
04
08
10
20
40
84
FC
ENDCHAR
STARTCHAR zacute
ENCODING 378
SWIDTH 389 0
DWIDTH 5 0
BBX 5 9 0 0
BITMAP
10
20
00
78
50
20
40
90
F0
ENDCHAR
STARTCHAR Zdotaccent
ENCODING 379
SWIDTH 556 0
DWIDTH 7 0
BBX 8 11 0 0
BITMAP
08
00
3F
22
04
08
10
20
40
84
FC
ENDCHAR
STARTCHAR zdotaccent
ENCODING 380
SWIDTH 389 0
DWIDTH 5 0
BBX 5 8 0 0
BITMAP
20
00
78
50
20
40
90
F0
ENDCHAR
STARTCHAR Zcaron
ENCODING 381
SWIDTH 556 0
DWIDTH 7 0
BBX 8 12 0 0
BITMAP
0A
0C
00
3F
22
04
08
10
20
40
84
FC
ENDCHAR
STARTCHAR zcaron
ENCODING 382
SWIDTH 389 0
DWIDTH 5 0
BBX 5 9 0 0
BITMAP
28
30
00
78
50
20
40
90
F0
ENDCHAR
STARTCHAR uni0186
ENCODING 390
SWIDTH 667 0
DWIDTH 7 0
BBX 8 9 0 0
BITMAP
0E
11
01
01
01
02
42
44
B8
ENDCHAR
STARTCHAR uni0189
ENCODING 393
SWIDTH 722 0
DWIDTH 9 0
BBX 9 9 0 0
BITMAP
3E00
1100
1080
2080
F880
2100
4100
4600
F800
ENDCHAR
STARTCHAR uni018E
ENCODING 398
SWIDTH 611 0
DWIDTH 8 0
BBX 8 9 0 0
BITMAP
3F
42
02
24
3C
44
08
88
FC
ENDCHAR
STARTCHAR florin
ENCODING 402
SWIDTH 500 0
DWIDTH 6 0
BBX 7 12 -1 -3
BITMAP
06
0A
08
1C
08
10
10
10
10
20
A0
C0
ENDCHAR
STARTCHAR uni0197
ENCODING 407
SWIDTH 333 0
DWIDTH 5 0
BBX 5 9 0 0
BITMAP
38
10
10
20
F8
20
40
40
E0
ENDCHAR
STARTCHAR uni019A
ENCODING 410
SWIDTH 278 0
DWIDTH 3 0
BBX 5 9 -1 0
BITMAP
30
10
10
20
F8
20
40
50
20
ENDCHAR
STARTCHAR uni019D
ENCODING 413
SWIDTH 667 0
DWIDTH 9 0
BBX 12 12 -3 -3
BITMAP
0C70
0420
0420
0A40
0A40
0940
1180
1080
1080
2000
A000
C000
ENDCHAR
STARTCHAR uni019F
ENCODING 415
SWIDTH 722 0
DWIDTH 7 0
BBX 7 9 0 0
BITMAP
1C
22
42
42
FE
84
84
88
70
ENDCHAR
STARTCHAR Ohorn
ENCODING 416
SWIDTH 722 0
DWIDTH 7 0
BBX 9 9 0 0
BITMAP
1C80
2280
4300
4200
8200
8400
8400
8800
7000
ENDCHAR
STARTCHAR ohorn
ENCODING 417
SWIDTH 500 0
DWIDTH 6 0
BBX 7 6 0 0
BITMAP
32
4A
8C
88
90
60
ENDCHAR
STARTCHAR Uhorn
ENCODING 431
SWIDTH 722 0
DWIDTH 8 0
BBX 10 9 0 0
BITMAP
73C0
2140
2180
4200
4200
4200
8400
8400
7800
ENDCHAR
STARTCHAR uhorn
ENCODING 432
SWIDTH 500 0
DWIDTH 6 0
BBX 8 6 0 0
BITMAP
C9
49
4A
90
94
68
ENDCHAR
STARTCHAR uni01B5
ENCODING 437
SWIDTH 556 0
DWIDTH 7 0
BBX 8 9 0 0
BITMAP
3F
22
04
08
3E
20
40
84
FC
ENDCHAR
STARTCHAR uni01B6
ENCODING 438
SWIDTH 389 0
DWIDTH 5 0
BBX 5 6 0 0
BITMAP
78
50
F8
40
90
F0
ENDCHAR
STARTCHAR uni01BB
ENCODING 443
SWIDTH 500 0
DWIDTH 6 0
BBX 6 9 0 0
BITMAP
38
44
04
08
FC
20
40
84
F8
ENDCHAR
STARTCHAR uni01BC
ENCODING 444
SWIDTH 500 0
DWIDTH 6 0
BBX 6 9 0 0
BITMAP
3C
20
40
70
08
08
08
90
E0
ENDCHAR
STARTCHAR uni01C0
ENCODING 448
SWIDTH 275 0
DWIDTH 4 0
BBX 4 12 -1 -3
BITMAP
10
10
10
20
20
20
40
40
40
80
80
80
ENDCHAR
STARTCHAR uni01C2
ENCODING 450
SWIDTH 675 0
DWIDTH 8 0
BBX 6 12 0 -2
BITMAP
08
08
08
10
10
FC
20
FC
20
40
40
40
ENDCHAR
STARTCHAR uni01C3
ENCODING 451
SWIDTH 333 0
DWIDTH 4 0
BBX 3 9 1 0
BITMAP
20
20
40
40
40
80
80
00
80
ENDCHAR
STARTCHAR uni01CD
ENCODING 461
SWIDTH 611 0
DWIDTH 8 0
BBX 8 12 -1 0
BITMAP
09
0E
00
06
06
0A
12
12
3E
22
42
E7
ENDCHAR
STARTCHAR uni01CE
ENCODING 462
SWIDTH 500 0
DWIDTH 6 0
BBX 6 9 0 0
BITMAP
24
38
00
34
48
88
90
94
68
ENDCHAR
STARTCHAR uni01CF
ENCODING 463
SWIDTH 333 0
DWIDTH 5 0
BBX 6 12 0 0
BITMAP
24
38
00
38
10
10
20
20
20
40
40
E0
ENDCHAR
STARTCHAR uni01D0
ENCODING 464
SWIDTH 278 0
DWIDTH 4 0
BBX 4 9 0 0
BITMAP
90
E0
00
60
20
40
40
90
60
ENDCHAR
STARTCHAR uni01D1
ENCODING 465
SWIDTH 722 0
DWIDTH 7 0
BBX 7 12 0 0
BITMAP
24
38
00
1C
22
42
42
82
84
84
88
70
ENDCHAR
STARTCHAR uni01D2
ENCODING 466
SWIDTH 500 0
DWIDTH 6 0
BBX 5 9 0 0
BITMAP
48
70
00
30
48
88
88
90
60
ENDCHAR
STARTCHAR uni01D3
ENCODING 467
SWIDTH 722 0
DWIDTH 8 0
BBX 9 12 0 0
BITMAP
1200
1C00
0000
7380
2100
2100
4200
4200
4200
8400
8400
7800
ENDCHAR
STARTCHAR uni01D4
ENCODING 468
SWIDTH 500 0
DWIDTH 6 0
BBX 6 9 0 0
BITMAP
48
70
00
C8
48
48
90
94
68
ENDCHAR
STARTCHAR uni01D5
ENCODING 469
SWIDTH 722 0
DWIDTH 8 0
BBX 9 13 0 0
BITMAP
1E00
0000
0A00
0000
7380
2100
2100
4200
4200
4200
8400
8400
7800
ENDCHAR
STARTCHAR uni01D6
ENCODING 470
SWIDTH 500 0
DWIDTH 6 0
BBX 6 10 0 0
BITMAP
78
00
28
00
C8
48
48
90
94
68
ENDCHAR
STARTCHAR uni01D7
ENCODING 471
SWIDTH 722 0
DWIDTH 8 0
BBX 9 14 0 0
BITMAP
0400
0800
0000
0A00
0000
7380
2100
2100
4200
4200
4200
8400
8400
7800
ENDCHAR
STARTCHAR uni01D8
ENCODING 472
SWIDTH 500 0
DWIDTH 6 0
BBX 6 11 0 0
BITMAP
10
20
00
28
00
C8
48
48
90
94
68
ENDCHAR
STARTCHAR uni01D9
ENCODING 473
SWIDTH 722 0
DWIDTH 8 0
BBX 9 14 0 0
BITMAP
1200
1C00
0000
0A00
0000
7380
2100
2100
4200
4200
4200
8400
8400
7800
ENDCHAR
STARTCHAR uni01DA
ENCODING 474
SWIDTH 500 0
DWIDTH 6 0
BBX 6 11 0 0
BITMAP
48
70
00
28
00
C8
48
48
90
94
68
ENDCHAR
STARTCHAR uni01DB
ENCODING 475
SWIDTH 722 0
DWIDTH 8 0
BBX 9 14 0 0
BITMAP
0800
0400
0000
0A00
0000
7380
2100
2100
4200
4200
4200
8400
8400
7800
ENDCHAR
STARTCHAR uni01DC
ENCODING 476
SWIDTH 500 0
DWIDTH 6 0
BBX 6 11 0 0
BITMAP
40
20
00
28
00
C8
48
48
90
94
68
ENDCHAR
STARTCHAR uni01DD
ENCODING 477
SWIDTH 444 0
DWIDTH 6 0
BBX 5 6 0 0
BITMAP
70
88
38
48
90
60
ENDCHAR
STARTCHAR uni01DE
ENCODING 478
SWIDTH 611 0
DWIDTH 8 0
BBX 8 13 -1 0
BITMAP
0F
00
05
00
06
06
0A
12
12
3E
22
42
E7
ENDCHAR
STARTCHAR uni01DF
ENCODING 479
SWIDTH 500 0
DWIDTH 7 0
BBX 6 10 0 0
BITMAP
78
00
28
00
34
48
88
90
94
68
ENDCHAR
STARTCHAR uni01E0
ENCODING 480
SWIDTH 611 0
DWIDTH 8 0
BBX 8 13 -1 0
BITMAP
1E
00
04
00
06
06
0A
12
12
3E
22
42
E7
ENDCHAR
STARTCHAR uni01E1
ENCODING 481
SWIDTH 500 0
DWIDTH 6 0
BBX 6 10 0 0
BITMAP
3C
00
10
00
34
48
88
90
94
68
ENDCHAR
STARTCHAR uni01E2
ENCODING 482
SWIDTH 889 0
DWIDTH 11 0
BBX 12 11 -1 0
BITMAP
0780
0000
07F0
0310
0500
0A20
13C0
3E40
2400
4420
EFC0
ENDCHAR
STARTCHAR uni01E3
ENCODING 483
SWIDTH 667 0
DWIDTH 9 0
BBX 8 8 0 0
BITMAP
3C
00
3E
49
8E
98
A9
CE
ENDCHAR
STARTCHAR uni01E4
ENCODING 484
SWIDTH 722 0
DWIDTH 8 0
BBX 9 9 0 0
BITMAP
1D00
2200
4200
4000
8000
8E00
8F80
8800
7800
ENDCHAR
STARTCHAR uni01E5
ENCODING 485
SWIDTH 500 0
DWIDTH 5 0
BBX 6 9 -1 -3
BITMAP
3C
48
48
30
20
70
FC
88
70
ENDCHAR
STARTCHAR Gcaron
ENCODING 486
SWIDTH 722 0
DWIDTH 8 0
BBX 8 12 0 0
BITMAP
12
1C
00
1D
22
42
40
80
8E
84
88
78
ENDCHAR
STARTCHAR gcaron
ENCODING 487
SWIDTH 500 0
DWIDTH 5 0
BBX 6 12 -1 -3
BITMAP
24
38
00
3C
48
48
30
20
70
88
88
70
ENDCHAR
STARTCHAR uni01E8
ENCODING 488
SWIDTH 667 0
DWIDTH 8 0
BBX 9 12 -1 0
BITMAP
1200
1C00
0000
3B80
1100
1200
2400
3800
2800
4400
4200
E700
ENDCHAR
STARTCHAR uni01E9
ENCODING 489
SWIDTH 444 0
DWIDTH 6 0
BBX 6 12 0 0
BITMAP
48
70
00
30
10
20
2C
50
60
50
94
88
ENDCHAR
STARTCHAR uni01EA
ENCODING 490
SWIDTH 722 0
DWIDTH 7 0
BBX 7 12 0 -3
BITMAP
1C
22
42
42
82
84
84
88
70
20
48
70
ENDCHAR
STARTCHAR uni01EB
ENCODING 491
SWIDTH 500 0
DWIDTH 6 0
BBX 5 9 0 -3
BITMAP
30
48
88
88
90
60
20
48
70
ENDCHAR
STARTCHAR uni01EC
ENCODING 492
SWIDTH 722 0
DWIDTH 7 0
BBX 7 14 0 -3
BITMAP
3C
00
1C
22
42
42
82
84
84
88
70
20
48
70
ENDCHAR
STARTCHAR uni01ED
ENCODING 493
SWIDTH 500 0
DWIDTH 6 0
BBX 5 11 0 -3
BITMAP
78
00
30
48
88
88
90
60
20
48
70
ENDCHAR
STARTCHAR uni01F0
ENCODING 496
SWIDTH 278 0
DWIDTH 4 0
BBX 6 12 -2 -3
BITMAP
24
38
00
18
08
08
10
10
10
20
A0
C0
ENDCHAR
STARTCHAR uni01F4
ENCODING 500
SWIDTH 722 0
DWIDTH 8 0
BBX 8 12 0 0
BITMAP
04
08
00
1D
22
42
40
80
8E
84
88
78
ENDCHAR
STARTCHAR uni01F5
ENCODING 501
SWIDTH 500 0
DWIDTH 5 0
BBX 6 12 -1 -3
BITMAP
08
10
00
3C
48
48
30
20
70
88
88
70
ENDCHAR
STARTCHAR uni01F8
ENCODING 504
SWIDTH 667 0
DWIDTH 9 0
BBX 10 12 -1 0
BITMAP
0800
0400
0000
31C0
1080
1080
2900
2900
2500
4600
4200
E200
ENDCHAR
STARTCHAR uni01F9
ENCODING 505
SWIDTH 500 0
DWIDTH 6 0
BBX 6 9 0 0
BITMAP
40
20
00
B0
48
48
90
94
98
ENDCHAR
STARTCHAR Aringacute
ENCODING 506
SWIDTH 611 0
DWIDTH 8 0
BBX 8 15 -1 0
BITMAP
02
04
00
02
05
02
06
06
0A
12
12
3E
22
42
E7
ENDCHAR
STARTCHAR aringacute
ENCODING 507
SWIDTH 500 0
DWIDTH 7 0
BBX 6 12 0 0
BITMAP
08
10
00
10
28
10
34
48
88
90
94
68
ENDCHAR
STARTCHAR AEacute
ENCODING 508
SWIDTH 889 0
DWIDTH 11 0
BBX 12 12 -1 0
BITMAP
0080
0100
0000
07F0
0310
0500
0A20
13C0
3E40
2400
4420
EFC0
ENDCHAR
STARTCHAR aeacute
ENCODING 509
SWIDTH 667 0
DWIDTH 9 0
BBX 8 9 0 0
BITMAP
04
08
00
3E
49
8E
98
A9
CE
ENDCHAR
STARTCHAR Oslashacute
ENCODING 510
SWIDTH 722 0
DWIDTH 7 0
BBX 7 14 0 -1
BITMAP
04
08
00
02
1C
26
4A
4A
92
A4
A4
C8
70
80
ENDCHAR
STARTCHAR oslashacute
ENCODING 511
SWIDTH 500 0
DWIDTH 6 0
BBX 5 11 0 -1
BITMAP
10
20
00
08
30
48
88
88
90
60
80
ENDCHAR
STARTCHAR Scommaaccent
ENCODING 536
SWIDTH 500 0
DWIDTH 6 0
BBX 8 13 -1 -4
BITMAP
1D
22
22
10
08
04
44
44
B8
00
10
10
20
ENDCHAR
STARTCHAR scommaaccent
ENCODING 537
SWIDTH 389 0
DWIDTH 5 0
BBX 4 10 0 -4
BITMAP
70
90
40
20
90
E0
00
40
40
80
ENDCHAR
STARTCHAR Tcommaaccent
ENCODING 538
SWIDTH 556 0
DWIDTH 7 0
BBX 8 13 0 -4
BITMAP
7F
89
08
10
10
10
20
20
70
00
10
10
20
ENDCHAR
STARTCHAR tcommaaccent
ENCODING 539
SWIDTH 278 0
DWIDTH 4 0
BBX 4 11 0 -4
BITMAP
20
F0
40
40
80
A0
40
00
40
40
80
ENDCHAR
STARTCHAR uni021E
ENCODING 542
SWIDTH 722 0
DWIDTH 9 0
BBX 10 12 -1 0
BITMAP
0900
0E00
0000
39C0
1080
1080
2100
3F00
2100
4200
4200
E700
ENDCHAR
STARTCHAR uni021F
ENCODING 543
SWIDTH 500 0
DWIDTH 6 0
BBX 6 12 0 0
BITMAP
48
70
00
60
20
40
70
48
48
90
94
98
ENDCHAR
STARTCHAR uni0226
ENCODING 550
SWIDTH 611 0
DWIDTH 8 0
BBX 8 11 -1 0
BITMAP
04
00
06
06
0A
12
12
3E
22
42
E7
ENDCHAR
STARTCHAR uni0227
ENCODING 551
SWIDTH 500 0
DWIDTH 6 0
BBX 6 8 0 0
BITMAP
10
00
34
48
88
90
94
68
ENDCHAR
STARTCHAR uni0228
ENCODING 552
SWIDTH 611 0
DWIDTH 8 0
BBX 8 12 0 -3
BITMAP
3F
11
10
22
3C
24
40
42
FC
10
08
30
ENDCHAR
STARTCHAR uni0229
ENCODING 553
SWIDTH 444 0
DWIDTH 6 0
BBX 5 9 0 -3
BITMAP
30
48
90
E0
88
70
20
10
60
ENDCHAR
STARTCHAR uni022A
ENCODING 554
SWIDTH 722 0
DWIDTH 7 0
BBX 7 13 0 0
BITMAP
3C
00
0A
00
1C
22
42
42
82
84
84
88
70
ENDCHAR
STARTCHAR uni022B
ENCODING 555
SWIDTH 500 0
DWIDTH 6 0
BBX 5 10 0 0
BITMAP
78
00
28
00
30
48
88
88
90
60
ENDCHAR
STARTCHAR uni022C
ENCODING 556
SWIDTH 722 0
DWIDTH 7 0
BBX 8 14 0 0
BITMAP
1E
00
0D
16
00
1C
22
42
42
82
84
84
88
70
ENDCHAR
STARTCHAR uni022D
ENCODING 557
SWIDTH 500 0
DWIDTH 6 0
BBX 6 11 0 0
BITMAP
78
00
34
58
00
30
48
88
88
90
60
ENDCHAR
STARTCHAR uni022E
ENCODING 558
SWIDTH 722 0
DWIDTH 7 0
BBX 7 11 0 0
BITMAP
08
00
1C
22
42
42
82
84
84
88
70
ENDCHAR
STARTCHAR uni022F
ENCODING 559
SWIDTH 500 0
DWIDTH 6 0
BBX 5 8 0 0
BITMAP
20
00
30
48
88
88
90
60
ENDCHAR
STARTCHAR uni0230
ENCODING 560
SWIDTH 722 0
DWIDTH 7 0
BBX 7 13 0 0
BITMAP
3C
00
08
00
1C
22
42
42
82
84
84
88
70
ENDCHAR
STARTCHAR uni0231
ENCODING 561
SWIDTH 500 0
DWIDTH 6 0
BBX 5 10 0 0
BITMAP
78
00
20
00
30
48
88
88
90
60
ENDCHAR
STARTCHAR uni0232
ENCODING 562
SWIDTH 556 0
DWIDTH 7 0
BBX 8 11 0 0
BITMAP
3C
00
77
22
24
28
30
20
20
40
E0
ENDCHAR
STARTCHAR uni0233
ENCODING 563
SWIDTH 444 0
DWIDTH 6 0
BBX 6 11 -1 -3
BITMAP
78
00
64
24
24
28
18
10
10
A0
C0
ENDCHAR
STARTCHAR uni0250
ENCODING 592
SWIDTH 500 0
DWIDTH 6 0
BBX 6 6 0 0
BITMAP
58
A4
24
44
48
B0
ENDCHAR
STARTCHAR uni0259
ENCODING 601
SWIDTH 444 0
DWIDTH 6 0
BBX 5 6 0 0
BITMAP
70
88
38
48
90
60
ENDCHAR
STARTCHAR uni025F
ENCODING 607
SWIDTH 278 0
DWIDTH 4 0
BBX 7 12 -2 -6
BITMAP
06
0A
08
10
10
10
10
20
70
20
A0
C0
ENDCHAR
STARTCHAR uni0265
ENCODING 613
SWIDTH 500 0
DWIDTH 6 0
BBX 6 9 0 -3
BITMAP
64
A4
24
48
48
38
08
10
18
ENDCHAR
STARTCHAR uni0275
ENCODING 629
SWIDTH 500 0
DWIDTH 6 0
BBX 5 6 0 0
BITMAP
30
48
F8
88
90
60
ENDCHAR
STARTCHAR uni0279
ENCODING 633
SWIDTH 389 0
DWIDTH 4 0
BBX 4 6 0 0
BITMAP
10
10
10
20
20
D0
ENDCHAR
STARTCHAR uni0287
ENCODING 647
SWIDTH 278 0
DWIDTH 4 0
BBX 4 7 0 0
BITMAP
20
50
10
20
20
F0
40
ENDCHAR
STARTCHAR uni0289
ENCODING 649
SWIDTH 500 0
DWIDTH 6 0
BBX 6 6 0 0
BITMAP
C8
48
FC
90
94
68
ENDCHAR
STARTCHAR uni028C
ENCODING 652
SWIDTH 444 0
DWIDTH 6 0
BBX 5 6 0 0
BITMAP
10
30
50
50
90
98
ENDCHAR
STARTCHAR uni028D
ENCODING 653
SWIDTH 667 0
DWIDTH 9 0
BBX 8 6 0 0
BITMAP
12
36
5A
52
92
93
ENDCHAR
STARTCHAR uni028E
ENCODING 654
SWIDTH 444 0
DWIDTH 6 0
BBX 6 9 -1 0
BITMAP
0C
14
20
20
60
50
90
90
98
ENDCHAR
STARTCHAR uni029E
ENCODING 670
SWIDTH 444 0
DWIDTH 6 0
BBX 6 9 0 -3
BITMAP
44
A4
28
18
28
D0
10
20
30
ENDCHAR
STARTCHAR uni02BB
ENCODING 699
SWIDTH 333 0
DWIDTH 4 0
BBX 2 3 2 6
BITMAP
40
80
80
ENDCHAR
STARTCHAR afii57929
ENCODING 700
SWIDTH 333 0
DWIDTH 4 0
BBX 2 3 2 6
BITMAP
40
40
80
ENDCHAR
STARTCHAR afii64937
ENCODING 701
SWIDTH 333 0
DWIDTH 4 0
BBX 2 3 2 6
BITMAP
80
80
40
ENDCHAR
STARTCHAR circumflex
ENCODING 710
SWIDTH 333 0
DWIDTH 4 0
BBX 3 2 1 7
BITMAP
60
A0
ENDCHAR
STARTCHAR caron
ENCODING 711
SWIDTH 333 0
DWIDTH 4 0
BBX 4 2 1 7
BITMAP
90
E0
ENDCHAR
STARTCHAR uni02C8
ENCODING 712
SWIDTH 214 0
DWIDTH 3 0
BBX 2 2 1 7
BITMAP
40
80
ENDCHAR
STARTCHAR macron
ENCODING 713
SWIDTH 333 0
DWIDTH 4 0
BBX 4 1 1 7
BITMAP
F0
ENDCHAR
STARTCHAR uni02CA
ENCODING 714
SWIDTH 333 0
DWIDTH 4 0
BBX 2 2 2 7
BITMAP
40
80
ENDCHAR
STARTCHAR uni02CB
ENCODING 715
SWIDTH 333 0
DWIDTH 4 0
BBX 2 2 2 7
BITMAP
80
40
ENDCHAR
STARTCHAR uni02CD
ENCODING 717
SWIDTH 333 0
DWIDTH 4 0
BBX 4 1 1 -2
BITMAP
F0
ENDCHAR
STARTCHAR uni02CE
ENCODING 718
SWIDTH 333 0
DWIDTH 4 0
BBX 2 2 2 -3
BITMAP
80
40
ENDCHAR
STARTCHAR uni02CF
ENCODING 719
SWIDTH 333 0
DWIDTH 4 0
BBX 2 2 2 -3
BITMAP
40
80
ENDCHAR
STARTCHAR breve
ENCODING 728
SWIDTH 333 0
DWIDTH 4 0
BBX 4 3 1 7
BITMAP
90
90
60
ENDCHAR
STARTCHAR dotaccent
ENCODING 729
SWIDTH 333 0
DWIDTH 4 0
BBX 1 1 2 7
BITMAP
80
ENDCHAR
STARTCHAR ring
ENCODING 730
SWIDTH 333 0
DWIDTH 4 0
BBX 3 3 3 6
BITMAP
40
A0
40
ENDCHAR
STARTCHAR ogonek
ENCODING 731
SWIDTH 333 0
DWIDTH 4 0
BBX 4 3 0 -3
BITMAP
40
90
E0
ENDCHAR
STARTCHAR tilde
ENCODING 732
SWIDTH 333 0
DWIDTH 5 0
BBX 5 2 1 7
BITMAP
68
B0
ENDCHAR
STARTCHAR hungarumlaut
ENCODING 733
SWIDTH 333 0
DWIDTH 4 0
BBX 4 2 1 7
BITMAP
50
A0
ENDCHAR
STARTCHAR uni02EE
ENCODING 750
SWIDTH 556 0
DWIDTH 7 0
BBX 5 3 1 6
BITMAP
48
48
90
ENDCHAR
STARTCHAR uni037E
ENCODING 894
SWIDTH 333 0
DWIDTH 4 0
BBX 3 8 0 -2
BITMAP
20
00
00
00
00
40
40
80
ENDCHAR
STARTCHAR tonos
ENCODING 900
SWIDTH 333 0
DWIDTH 4 0
BBX 2 2 2 7
BITMAP
40
80
ENDCHAR
STARTCHAR dieresistonos
ENCODING 901
SWIDTH 333 0
DWIDTH 4 0
BBX 3 4 1 7
BITMAP
20
40
00
A0
ENDCHAR
STARTCHAR anoteleia
ENCODING 903
SWIDTH 250 0
DWIDTH 3 0
BBX 1 1 1 3
BITMAP
80
ENDCHAR
STARTCHAR mu
ENCODING 956
SWIDTH 500 0
DWIDTH 6 0
BBX 7 9 -1 -3
BITMAP
64
24
24
48
4A
74
80
80
C0
ENDCHAR
STARTCHAR uni1E00
ENCODING 7680
SWIDTH 611 0
DWIDTH 8 0
BBX 8 13 -1 -4
BITMAP
06
06
0A
12
12
3E
22
42
E7
00
08
14
08
ENDCHAR
STARTCHAR uni1E01
ENCODING 7681
SWIDTH 500 0
DWIDTH 6 0
BBX 6 10 0 -4
BITMAP
34
48
88
90
94
68
00
10
28
10
ENDCHAR
STARTCHAR uni1E02
ENCODING 7682
SWIDTH 611 0
DWIDTH 8 0
BBX 8 11 -1 0
BITMAP
08
00
3E
13
11
22
3C
22
42
46
FC
ENDCHAR
STARTCHAR uni1E03
ENCODING 7683
SWIDTH 500 0
DWIDTH 6 0
BBX 5 11 0 0
BITMAP
20
00
60
20
40
70
48
88
88
90
E0
ENDCHAR
STARTCHAR uni1E04
ENCODING 7684
SWIDTH 611 0
DWIDTH 8 0
BBX 8 11 -1 -2
BITMAP
3E
13
11
22
3C
22
42
46
FC
00
10
ENDCHAR
STARTCHAR uni1E05
ENCODING 7685
SWIDTH 500 0
DWIDTH 6 0
BBX 5 11 0 -2
BITMAP
60
20
40
70
48
88
88
90
E0
00
20
ENDCHAR
STARTCHAR uni1E06
ENCODING 7686
SWIDTH 611 0
DWIDTH 8 0
BBX 8 11 -1 -2
BITMAP
3E
13
11
22
3C
22
42
46
FC
00
3C
ENDCHAR
STARTCHAR uni1E07
ENCODING 7687
SWIDTH 500 0
DWIDTH 6 0
BBX 5 11 0 -2
BITMAP
60
20
40
70
48
88
88
90
E0
00
F0
ENDCHAR
STARTCHAR uni1E08
ENCODING 7688
SWIDTH 667 0
DWIDTH 7 0
BBX 8 15 0 -3
BITMAP
04
08
00
1D
22
42
40
80
80
80
88
70
20
10
60
ENDCHAR
STARTCHAR uni1E09
ENCODING 7689
SWIDTH 444 0
DWIDTH 5 0
BBX 4 12 0 -3
BITMAP
10
20
00
30
50
80
80
90
60
40
20
C0
ENDCHAR
STARTCHAR uni1E0A
ENCODING 7690
SWIDTH 722 0
DWIDTH 9 0
BBX 9 11 0 0
BITMAP
0800
0000
3E00
1100
1080
2080
2080
2100
4100
4600
F800
ENDCHAR
STARTCHAR uni1E0B
ENCODING 7691
SWIDTH 500 0
DWIDTH 6 0
BBX 6 11 0 0
BITMAP
08
00
0C
04
04
38
48
88
90
94
68
ENDCHAR
STARTCHAR uni1E0C
ENCODING 7692
SWIDTH 722 0
DWIDTH 9 0
BBX 9 11 0 -2
BITMAP
3E00
1100
1080
2080
2080
2100
4100
4600
F800
0000
1000
ENDCHAR
STARTCHAR uni1E0D
ENCODING 7693
SWIDTH 500 0
DWIDTH 6 0
BBX 6 11 0 -2
BITMAP
0C
04
04
38
48
88
90
94
68
00
20
ENDCHAR
STARTCHAR uni1E0E
ENCODING 7694
SWIDTH 722 0
DWIDTH 9 0
BBX 9 11 0 -2
BITMAP
3E00
1100
1080
2080
2080
2100
4100
4600
F800
0000
3C00
ENDCHAR
STARTCHAR uni1E0F
ENCODING 7695
SWIDTH 500 0
DWIDTH 6 0
BBX 6 11 0 -2
BITMAP
0C
04
04
38
48
88
90
94
68
00
78
ENDCHAR
STARTCHAR uni1E10
ENCODING 7696
SWIDTH 722 0
DWIDTH 9 0
BBX 9 12 0 -3
BITMAP
3E00
1100
1080
2080
2080
2100
4100
4600
F800
1000
0800
3000
ENDCHAR
STARTCHAR uni1E11
ENCODING 7697
SWIDTH 500 0
DWIDTH 6 0
BBX 6 12 0 -3
BITMAP
0C
04
04
38
48
88
90
94
68
20
10
60
ENDCHAR
STARTCHAR uni1E12
ENCODING 7698
SWIDTH 722 0
DWIDTH 9 0
BBX 9 12 0 -3
BITMAP
3E00
1100
1080
2080
2080
2100
4100
4600
F800
0000
1800
2800
ENDCHAR
STARTCHAR uni1E13
ENCODING 7699
SWIDTH 500 0
DWIDTH 6 0
BBX 6 12 0 -3
BITMAP
0C
04
04
38
48
88
90
94
68
00
30
50
ENDCHAR
STARTCHAR uni1E14
ENCODING 7700
SWIDTH 611 0
DWIDTH 8 0
BBX 8 14 0 0
BITMAP
10
08
00
1E
00
3F
11
10
22
3C
24
40
42
FC
ENDCHAR
STARTCHAR uni1E15
ENCODING 7701
SWIDTH 444 0
DWIDTH 6 0
BBX 5 11 0 0
BITMAP
20
10
00
78
00
30
48
90
E0
88
70
ENDCHAR
STARTCHAR uni1E16
ENCODING 7702
SWIDTH 611 0
DWIDTH 8 0
BBX 8 14 0 0
BITMAP
04
08
00
1E
00
3F
11
10
22
3C
24
40
42
FC
ENDCHAR
STARTCHAR uni1E17
ENCODING 7703
SWIDTH 444 0
DWIDTH 6 0
BBX 5 11 0 0
BITMAP
10
20
00
78
00
30
48
90
E0
88
70
ENDCHAR
STARTCHAR uni1E18
ENCODING 7704
SWIDTH 611 0
DWIDTH 8 0
BBX 8 12 0 -3
BITMAP
3F
11
10
22
3C
24
40
42
FC
00
18
28
ENDCHAR
STARTCHAR uni1E19
ENCODING 7705
SWIDTH 444 0
DWIDTH 6 0
BBX 5 9 0 -3
BITMAP
30
48
90
E0
88
70
00
30
50
ENDCHAR
STARTCHAR uni1E1A
ENCODING 7706
SWIDTH 611 0
DWIDTH 8 0
BBX 8 12 0 -3
BITMAP
3F
11
10
22
3C
24
40
42
FC
00
34
58
ENDCHAR
STARTCHAR uni1E1B
ENCODING 7707
SWIDTH 444 0
DWIDTH 6 0
BBX 5 9 0 -3
BITMAP
30
48
90
E0
88
70
00
68
B0
ENDCHAR
STARTCHAR uni1E1C
ENCODING 7708
SWIDTH 611 0
DWIDTH 8 0
BBX 8 16 0 -3
BITMAP
12
12
0C
00
3F
11
10
22
3C
24
40
42
FC
10
08
30
ENDCHAR
STARTCHAR uni1E1D
ENCODING 7709
SWIDTH 444 0
DWIDTH 6 0
BBX 5 13 0 -3
BITMAP
48
48
30
00
30
48
90
E0
88
70
20
10
60
ENDCHAR
STARTCHAR uni1E1E
ENCODING 7710
SWIDTH 611 0
DWIDTH 8 0
BBX 8 11 0 0
BITMAP
08
00
3F
11
10
22
3C
24
40
40
E0
ENDCHAR
STARTCHAR uni1E1F
ENCODING 7711
SWIDTH 278 0
DWIDTH 4 0
BBX 7 14 -2 -3
BITMAP
08
00
06
0A
08
1C
08
10
10
10
10
20
A0
C0
ENDCHAR
STARTCHAR uni1E20
ENCODING 7712
SWIDTH 722 0
DWIDTH 8 0
BBX 8 11 0 0
BITMAP
1E
00
1D
22
42
40
80
8E
84
88
78
ENDCHAR
STARTCHAR uni1E21
ENCODING 7713
SWIDTH 500 0
DWIDTH 5 0
BBX 6 11 -1 -3
BITMAP
78
00
3C
48
48
30
20
70
88
88
70
ENDCHAR
STARTCHAR uni1E22
ENCODING 7714
SWIDTH 722 0
DWIDTH 9 0
BBX 10 11 -1 0
BITMAP
0400
0000
39C0
1080
1080
2100
3F00
2100
4200
4200
E700
ENDCHAR
STARTCHAR uni1E23
ENCODING 7715
SWIDTH 500 0
DWIDTH 6 0
BBX 6 11 0 0
BITMAP
20
00
60
20
40
70
48
48
90
94
98
ENDCHAR
STARTCHAR uni1E24
ENCODING 7716
SWIDTH 722 0
DWIDTH 9 0
BBX 10 11 -1 -2
BITMAP
39C0
1080
1080
2100
3F00
2100
4200
4200
E700
0000
0800
ENDCHAR
STARTCHAR uni1E25
ENCODING 7717
SWIDTH 500 0
DWIDTH 6 0
BBX 6 11 0 -2
BITMAP
60
20
40
70
48
48
90
94
98
00
20
ENDCHAR
STARTCHAR uni1E26
ENCODING 7718
SWIDTH 722 0
DWIDTH 9 0
BBX 10 11 -1 0
BITMAP
0A00
0000
39C0
1080
1080
2100
3F00
2100
4200
4200
E700
ENDCHAR
STARTCHAR uni1E27
ENCODING 7719
SWIDTH 500 0
DWIDTH 6 0
BBX 6 11 0 0
BITMAP
50
00
60
20
40
70
48
48
90
94
98
ENDCHAR
STARTCHAR uni1E28
ENCODING 7720
SWIDTH 722 0
DWIDTH 9 0
BBX 10 12 -1 -3
BITMAP
39C0
1080
1080
2100
3F00
2100
4200
4200
E700
0800
0400
1800
ENDCHAR
STARTCHAR uni1E29
ENCODING 7721
SWIDTH 500 0
DWIDTH 6 0
BBX 6 12 0 -3
BITMAP
60
20
40
70
48
48
90
94
98
20
10
60
ENDCHAR
STARTCHAR uni1E2A
ENCODING 7722
SWIDTH 722 0
DWIDTH 9 0
BBX 10 13 -1 -4
BITMAP
39C0
1080
1080
2100
3F00
2100
4200
4200
E700
0000
2400
2400
1800
ENDCHAR
STARTCHAR uni1E2B
ENCODING 7723
SWIDTH 500 0
DWIDTH 6 0
BBX 6 13 0 -4
BITMAP
60
20
40
70
48
48
90
94
98
00
48
48
30
ENDCHAR
STARTCHAR uni1E2C
ENCODING 7724
SWIDTH 333 0
DWIDTH 5 0
BBX 6 12 -1 -3
BITMAP
1C
08
08
10
10
10
20
20
70
00
68
B0
ENDCHAR
STARTCHAR uni1E2D
ENCODING 7725
SWIDTH 278 0
DWIDTH 4 0
BBX 5 12 -1 -3
BITMAP
10
00
00
30
10
20
20
48
30
00
68
B0
ENDCHAR
STARTCHAR uni1E2E
ENCODING 7726
SWIDTH 333 0
DWIDTH 5 0
BBX 5 14 0 0
BITMAP
08
10
00
28
00
38
10
10
20
20
20
40
40
E0
ENDCHAR
STARTCHAR uni1E2F
ENCODING 7727
SWIDTH 278 0
DWIDTH 4 0
BBX 4 11 0 0
BITMAP
10
20
00
50
00
60
20
40
40
90
60
ENDCHAR
STARTCHAR uni1E30
ENCODING 7728
SWIDTH 667 0
DWIDTH 8 0
BBX 9 12 -1 0
BITMAP
0400
0800
0000
3B80
1100
1200
2400
3800
2800
4400
4200
E700
ENDCHAR
STARTCHAR uni1E31
ENCODING 7729
SWIDTH 444 0
DWIDTH 6 0
BBX 6 12 0 0
BITMAP
10
20
00
30
10
20
2C
50
60
50
94
88
ENDCHAR
STARTCHAR uni1E32
ENCODING 7730
SWIDTH 667 0
DWIDTH 8 0
BBX 9 11 -1 -2
BITMAP
3B80
1100
1200
2400
3800
2800
4400
4200
E700
0000
0800
ENDCHAR
STARTCHAR uni1E33
ENCODING 7731
SWIDTH 444 0
DWIDTH 6 0
BBX 6 11 0 -2
BITMAP
30
10
20
2C
50
60
50
94
88
00
20
ENDCHAR
STARTCHAR uni1E34
ENCODING 7732
SWIDTH 667 0
DWIDTH 8 0
BBX 9 11 -1 -2
BITMAP
3B80
1100
1200
2400
3800
2800
4400
4200
E700
0000
3C00
ENDCHAR
STARTCHAR uni1E35
ENCODING 7733
SWIDTH 444 0
DWIDTH 6 0
BBX 6 11 0 -2
BITMAP
30
10
20
2C
50
60
50
94
88
00
78
ENDCHAR
STARTCHAR uni1E36
ENCODING 7734
SWIDTH 556 0
DWIDTH 7 0
BBX 7 11 0 -2
BITMAP
38
10
10
20
20
20
40
42
FC
00
10
ENDCHAR
STARTCHAR uni1E37
ENCODING 7735
SWIDTH 278 0
DWIDTH 3 0
BBX 3 11 0 -2
BITMAP
60
20
20
40
40
40
80
A0
40
00
40
ENDCHAR
STARTCHAR uni1E38
ENCODING 7736
SWIDTH 556 0
DWIDTH 7 0
BBX 7 13 0 -2
BITMAP
3C
00
38
10
10
20
20
20
40
42
FC
00
10
ENDCHAR
STARTCHAR uni1E39
ENCODING 7737
SWIDTH 278 0
DWIDTH 3 0
BBX 4 13 0 -2
BITMAP
F0
00
60
20
20
40
40
40
80
A0
40
00
40
ENDCHAR
STARTCHAR uni1E3A
ENCODING 7738
SWIDTH 556 0
DWIDTH 7 0
BBX 7 11 0 -2
BITMAP
38
10
10
20
20
20
40
42
FC
00
78
ENDCHAR
STARTCHAR uni1E3B
ENCODING 7739
SWIDTH 278 0
DWIDTH 3 0
BBX 4 11 -1 -2
BITMAP
30
10
10
20
20
20
40
50
20
00
F0
ENDCHAR
STARTCHAR uni1E3C
ENCODING 7740
SWIDTH 556 0
DWIDTH 7 0
BBX 7 12 0 -3
BITMAP
38
10
10
20
20
20
40
42
FC
00
30
50
ENDCHAR
STARTCHAR uni1E3D
ENCODING 7741
SWIDTH 278 0
DWIDTH 3 0
BBX 3 12 0 -3
BITMAP
60
20
20
40
40
40
80
A0
40
00
60
A0
ENDCHAR
STARTCHAR uni1E3E
ENCODING 7742
SWIDTH 833 0
DWIDTH 11 0
BBX 12 12 -1 0
BITMAP
0100
0200
0000
3870
1860
18C0
2940
2940
2A80
4A80
4C80
E9C0
ENDCHAR
STARTCHAR uni1E3F
ENCODING 7743
SWIDTH 722 0
DWIDTH 9 0
BBX 9 9 0 0
BITMAP
0400
0800
0000
B600
4900
4900
9200
9280
9300
ENDCHAR
STARTCHAR uni1E40
ENCODING 7744
SWIDTH 833 0
DWIDTH 11 0
BBX 12 11 -1 0
BITMAP
0200
0000
3870
1860
18C0
2940
2940
2A80
4A80
4C80
E9C0
ENDCHAR
STARTCHAR uni1E41
ENCODING 7745
SWIDTH 722 0
DWIDTH 9 0
BBX 9 8 0 0
BITMAP
0800
0000
B600
4900
4900
9200
9280
9300
ENDCHAR
STARTCHAR uni1E42
ENCODING 7746
SWIDTH 833 0
DWIDTH 11 0
BBX 12 11 -1 -2
BITMAP
3870
1860
18C0
2940
2940
2A80
4A80
4C80
E9C0
0000
0400
ENDCHAR
STARTCHAR uni1E43
ENCODING 7747
SWIDTH 722 0
DWIDTH 9 0
BBX 9 8 0 -2
BITMAP
B600
4900
4900
9200
9280
9300
0000
0800
ENDCHAR
STARTCHAR uni1E44
ENCODING 7748
SWIDTH 667 0
DWIDTH 9 0
BBX 10 11 -1 0
BITMAP
0400
0000
31C0
1080
1080
2900
2900
2500
4600
4200
E200
ENDCHAR
STARTCHAR uni1E45
ENCODING 7749
SWIDTH 500 0
DWIDTH 6 0
BBX 6 8 0 0
BITMAP
20
00
B0
48
48
90
94
98
ENDCHAR
STARTCHAR uni1E46
ENCODING 7750
SWIDTH 667 0
DWIDTH 9 0
BBX 10 11 -1 -2
BITMAP
31C0
1080
1080
2900
2900
2500
4600
4200
E200
0000
0800
ENDCHAR
STARTCHAR uni1E47
ENCODING 7751
SWIDTH 500 0
DWIDTH 6 0
BBX 6 8 0 -2
BITMAP
B0
48
48
90
94
98
00
10
ENDCHAR
STARTCHAR uni1E48
ENCODING 7752
SWIDTH 667 0
DWIDTH 9 0
BBX 10 11 -1 -2
BITMAP
31C0
1080
1080
2900
2900
2500
4600
4200
E200
0000
3C00
ENDCHAR
STARTCHAR uni1E49
ENCODING 7753
SWIDTH 500 0
DWIDTH 6 0
BBX 6 8 0 -2
BITMAP
B0
48
48
90
94
98
00
78
ENDCHAR
STARTCHAR uni1E4A
ENCODING 7754
SWIDTH 667 0
DWIDTH 9 0
BBX 10 12 -1 -3
BITMAP
31C0
1080
1080
2900
2900
2500
4600
4200
E200
0000
1800
2800
ENDCHAR
STARTCHAR uni1E4B
ENCODING 7755
SWIDTH 500 0
DWIDTH 6 0
BBX 6 9 0 -3
BITMAP
B0
48
48
90
94
98
00
30
50
ENDCHAR
STARTCHAR uni1E4C
ENCODING 7756
SWIDTH 722 0
DWIDTH 7 0
BBX 8 15 0 0
BITMAP
04
08
00
0D
16
00
1C
22
42
42
82
84
84
88
70
ENDCHAR
STARTCHAR uni1E4D
ENCODING 7757
SWIDTH 500 0
DWIDTH 6 0
BBX 6 12 0 0
BITMAP
08
10
00
34
58
00
30
48
88
88
90
60
ENDCHAR
STARTCHAR uni1E4E
ENCODING 7758
SWIDTH 722 0
DWIDTH 7 0
BBX 8 14 0 0
BITMAP
14
00
0D
16
00
1C
22
42
42
82
84
84
88
70
ENDCHAR
STARTCHAR uni1E4F
ENCODING 7759
SWIDTH 500 0
DWIDTH 6 0
BBX 6 11 0 0
BITMAP
28
00
34
58
00
30
48
88
88
90
60
ENDCHAR
STARTCHAR uni1E50
ENCODING 7760
SWIDTH 722 0
DWIDTH 7 0
BBX 7 14 0 0
BITMAP
10
08
00
3C
00
1C
22
42
42
82
84
84
88
70
ENDCHAR
STARTCHAR uni1E51
ENCODING 7761
SWIDTH 500 0
DWIDTH 6 0
BBX 5 11 0 0
BITMAP
20
10
00
78
00
30
48
88
88
90
60
ENDCHAR
STARTCHAR uni1E52
ENCODING 7762
SWIDTH 722 0
DWIDTH 7 0
BBX 7 14 0 0
BITMAP
08
10
00
3C
00
1C
22
42
42
82
84
84
88
70
ENDCHAR
STARTCHAR uni1E53
ENCODING 7763
SWIDTH 500 0
DWIDTH 6 0
BBX 5 11 0 0
BITMAP
10
20
00
78
00
30
48
88
88
90
60
ENDCHAR
STARTCHAR uni1E54
ENCODING 7764
SWIDTH 611 0
DWIDTH 8 0
BBX 8 12 0 0
BITMAP
04
08
00
3E
11
11
22
3C
20
40
40
E0
ENDCHAR
STARTCHAR uni1E55
ENCODING 7765
SWIDTH 500 0
DWIDTH 6 0
BBX 7 12 -2 -3
BITMAP
04
08
00
3C
12
12
22
24
38
40
40
E0
ENDCHAR
STARTCHAR uni1E56
ENCODING 7766
SWIDTH 611 0
DWIDTH 8 0
BBX 8 11 0 0
BITMAP
08
00
3E
11
11
22
3C
20
40
40
E0
ENDCHAR
STARTCHAR uni1E57
ENCODING 7767
SWIDTH 500 0
DWIDTH 6 0
BBX 7 11 -2 -3
BITMAP
08
00
3C
12
12
22
24
38
40
40
E0
ENDCHAR
STARTCHAR uni1E58
ENCODING 7768
SWIDTH 611 0
DWIDTH 8 0
BBX 8 11 -1 0
BITMAP
08
00
3E
11
11
22
3C
28
44
42
E3
ENDCHAR
STARTCHAR uni1E59
ENCODING 7769
SWIDTH 389 0
DWIDTH 4 0
BBX 4 8 0 0
BITMAP
20
00
B0
40
40
80
80
80
ENDCHAR
STARTCHAR uni1E5A
ENCODING 7770
SWIDTH 611 0
DWIDTH 8 0
BBX 8 11 -1 -2
BITMAP
3E
11
11
22
3C
28
44
42
E3
00
10
ENDCHAR
STARTCHAR uni1E5B
ENCODING 7771
SWIDTH 389 0
DWIDTH 4 0
BBX 4 8 0 -2
BITMAP
B0
40
40
80
80
80
00
40
ENDCHAR
STARTCHAR uni1E5C
ENCODING 7772
SWIDTH 611 0
DWIDTH 8 0
BBX 8 13 -1 -2
BITMAP
1E
00
3E
11
11
22
3C
28
44
42
E3
00
10
ENDCHAR
STARTCHAR uni1E5D
ENCODING 7773
SWIDTH 389 0
DWIDTH 4 0
BBX 4 10 0 -2
BITMAP
F0
00
B0
40
40
80
80
80
00
40
ENDCHAR
STARTCHAR uni1E5E
ENCODING 7774
SWIDTH 611 0
DWIDTH 8 0
BBX 8 11 -1 -2
BITMAP
3E
11
11
22
3C
28
44
42
E3
00
3C
ENDCHAR
STARTCHAR uni1E5F
ENCODING 7775
SWIDTH 389 0
DWIDTH 4 0
BBX 5 8 -1 -2
BITMAP
58
20
20
40
40
40
00
F0
ENDCHAR
STARTCHAR uni1E60
ENCODING 7776
SWIDTH 500 0
DWIDTH 6 0
BBX 8 11 -1 0
BITMAP
08
00
1D
22
22
10
08
04
44
44
B8
ENDCHAR
STARTCHAR uni1E61
ENCODING 7777
SWIDTH 389 0
DWIDTH 5 0
BBX 4 8 0 0
BITMAP
20
00
70
90
40
20
90
E0
ENDCHAR
STARTCHAR uni1E62
ENCODING 7778
SWIDTH 500 0
DWIDTH 6 0
BBX 8 11 -1 -2
BITMAP
1D
22
22
10
08
04
44
44
B8
00
10
ENDCHAR
STARTCHAR uni1E63
ENCODING 7779
SWIDTH 389 0
DWIDTH 5 0
BBX 4 8 0 -2
BITMAP
70
90
40
20
90
E0
00
40
ENDCHAR
STARTCHAR uni1E64
ENCODING 7780
SWIDTH 500 0
DWIDTH 6 0
BBX 8 14 -1 0
BITMAP
08
00
04
08
00
1D
22
22
10
08
04
44
44
B8
ENDCHAR
STARTCHAR uni1E65
ENCODING 7781
SWIDTH 389 0
DWIDTH 5 0
BBX 4 11 0 0
BITMAP
20
00
10
20
00
70
90
40
20
90
E0
ENDCHAR
STARTCHAR uni1E66
ENCODING 7782
SWIDTH 500 0
DWIDTH 6 0
BBX 8 14 -1 0
BITMAP
08
00
0A
0C
00
1D
22
22
10
08
04
44
44
B8
ENDCHAR
STARTCHAR uni1E67
ENCODING 7783
SWIDTH 389 0
DWIDTH 5 0
BBX 4 11 0 0
BITMAP
20
00
50
60
00
70
90
40
20
90
E0
ENDCHAR
STARTCHAR uni1E68
ENCODING 7784
SWIDTH 500 0
DWIDTH 6 0
BBX 8 13 -1 -2
BITMAP
08
00
1D
22
22
10
08
04
44
44
B8
00
10
ENDCHAR
STARTCHAR uni1E69
ENCODING 7785
SWIDTH 389 0
DWIDTH 5 0
BBX 4 10 0 -2
BITMAP
20
00
70
90
40
20
90
E0
00
40
ENDCHAR
STARTCHAR uni1E6A
ENCODING 7786
SWIDTH 556 0
DWIDTH 7 0
BBX 8 11 0 0
BITMAP
08
00
7F
89
08
10
10
10
20
20
70
ENDCHAR
STARTCHAR uni1E6B
ENCODING 7787
SWIDTH 278 0
DWIDTH 4 0
BBX 4 9 0 0
BITMAP
20
00
20
F0
40
40
80
A0
40
ENDCHAR
STARTCHAR uni1E6C
ENCODING 7788
SWIDTH 556 0
DWIDTH 7 0
BBX 8 11 0 -2
BITMAP
7F
89
08
10
10
10
20
20
70
00
10
ENDCHAR
STARTCHAR uni1E6D
ENCODING 7789
SWIDTH 278 0
DWIDTH 4 0
BBX 4 9 0 -2
BITMAP
20
F0
40
40
80
A0
40
00
40
ENDCHAR
STARTCHAR uni1E6E
ENCODING 7790
SWIDTH 556 0
DWIDTH 7 0
BBX 8 11 0 -2
BITMAP
7F
89
08
10
10
10
20
20
70
00
78
ENDCHAR
STARTCHAR uni1E6F
ENCODING 7791
SWIDTH 278 0
DWIDTH 4 0
BBX 4 9 0 -2
BITMAP
20
F0
40
40
80
A0
40
00
F0
ENDCHAR
STARTCHAR uni1E70
ENCODING 7792
SWIDTH 556 0
DWIDTH 7 0
BBX 8 12 0 -3
BITMAP
7F
89
08
10
10
10
20
20
70
00
30
50
ENDCHAR
STARTCHAR uni1E71
ENCODING 7793
SWIDTH 278 0
DWIDTH 4 0
BBX 4 10 0 -3
BITMAP
20
F0
40
40
80
A0
40
00
60
A0
ENDCHAR
STARTCHAR uni1E72
ENCODING 7794
SWIDTH 722 0
DWIDTH 8 0
BBX 9 11 0 -2
BITMAP
7380
2100
2100
4200
4200
4200
8400
8400
7800
0000
2800
ENDCHAR
STARTCHAR uni1E73
ENCODING 7795
SWIDTH 500 0
DWIDTH 6 0
BBX 6 8 0 -2
BITMAP
C8
48
48
90
94
68
00
28
ENDCHAR
STARTCHAR uni1E74
ENCODING 7796
SWIDTH 722 0
DWIDTH 8 0
BBX 9 12 0 -3
BITMAP
7380
2100
2100
4200
4200
4200
8400
8400
7800
0000
3400
5800
ENDCHAR
STARTCHAR uni1E75
ENCODING 7797
SWIDTH 500 0
DWIDTH 6 0
BBX 6 9 0 -3
BITMAP
C8
48
48
90
94
68
00
68
B0
ENDCHAR
STARTCHAR uni1E76
ENCODING 7798
SWIDTH 722 0
DWIDTH 8 0
BBX 9 12 0 -3
BITMAP
7380
2100
2100
4200
4200
4200
8400
8400
7800
0000
1800
2800
ENDCHAR
STARTCHAR uni1E77
ENCODING 7799
SWIDTH 500 0
DWIDTH 6 0
BBX 6 9 0 -3
BITMAP
C8
48
48
90
94
68
00
30
50
ENDCHAR
STARTCHAR uni1E78
ENCODING 7800
SWIDTH 722 0
DWIDTH 8 0
BBX 9 15 0 0
BITMAP
0400
0800
0000
0D00
1600
0000
7380
2100
2100
4200
4200
4200
8400
8400
7800
ENDCHAR
STARTCHAR uni1E79
ENCODING 7801
SWIDTH 500 0
DWIDTH 6 0
BBX 6 12 0 0
BITMAP
10
20
00
68
B0
00
C8
48
48
90
94
68
ENDCHAR
STARTCHAR uni1E7A
ENCODING 7802
SWIDTH 722 0
DWIDTH 8 0
BBX 9 13 0 0
BITMAP
1400
0000
1E00
0000
7380
2100
2100
4200
4200
4200
8400
8400
7800
ENDCHAR
STARTCHAR uni1E7B
ENCODING 7803
SWIDTH 500 0
DWIDTH 6 0
BBX 6 10 0 0
BITMAP
50
00
78
00
C8
48
48
90
94
68
ENDCHAR
STARTCHAR uni1E7C
ENCODING 7804
SWIDTH 611 0
DWIDTH 7 0
BBX 8 12 0 0
BITMAP
1A
2C
00
E7
42
44
44
48
48
50
50
60
ENDCHAR
STARTCHAR uni1E7D
ENCODING 7805
SWIDTH 444 0
DWIDTH 6 0
BBX 5 9 0 0
BITMAP
68
B0
00
C8
48
50
50
60
40
ENDCHAR
STARTCHAR uni1E7E
ENCODING 7806
SWIDTH 611 0
DWIDTH 7 0
BBX 8 11 0 -2
BITMAP
E7
42
44
44
48
48
50
50
60
00
20
ENDCHAR
STARTCHAR uni1E7F
ENCODING 7807
SWIDTH 444 0
DWIDTH 6 0
BBX 5 8 0 -2
BITMAP
C8
48
50
50
60
40
00
20
ENDCHAR
STARTCHAR Wgrave
ENCODING 7808
SWIDTH 833 0
DWIDTH 10 0
BBX 11 12 0 0
BITMAP
0800
0400
0000
EEE0
4440
4C80
4C80
5500
5500
6600
6600
4400
ENDCHAR
STARTCHAR wgrave
ENCODING 7809
SWIDTH 667 0
DWIDTH 9 0
BBX 8 9 0 0
BITMAP
10
08
00
C9
49
4A
5A
6C
48
ENDCHAR
STARTCHAR Wacute
ENCODING 7810
SWIDTH 833 0
DWIDTH 10 0
BBX 11 12 0 0
BITMAP
0200
0400
0000
EEE0
4440
4C80
4C80
5500
5500
6600
6600
4400
ENDCHAR
STARTCHAR wacute
ENCODING 7811
SWIDTH 667 0
DWIDTH 9 0
BBX 8 9 0 0
BITMAP
08
10
00
C9
49
4A
5A
6C
48
ENDCHAR
STARTCHAR Wdieresis
ENCODING 7812
SWIDTH 833 0
DWIDTH 10 0
BBX 11 11 0 0
BITMAP
0A00
0000
EEE0
4440
4C80
4C80
5500
5500
6600
6600
4400
ENDCHAR
STARTCHAR wdieresis
ENCODING 7813
SWIDTH 667 0
DWIDTH 9 0
BBX 8 8 0 0
BITMAP
28
00
C9
49
4A
5A
6C
48
ENDCHAR
STARTCHAR uni1E86
ENCODING 7814
SWIDTH 833 0
DWIDTH 10 0
BBX 11 11 0 0
BITMAP
0400
0000
EEE0
4440
4C80
4C80
5500
5500
6600
6600
4400
ENDCHAR
STARTCHAR uni1E87
ENCODING 7815
SWIDTH 667 0
DWIDTH 9 0
BBX 8 8 0 0
BITMAP
10
00
C9
49
4A
5A
6C
48
ENDCHAR
STARTCHAR uni1E88
ENCODING 7816
SWIDTH 833 0
DWIDTH 10 0
BBX 11 11 0 -2
BITMAP
EEE0
4440
4C80
4C80
5500
5500
6600
6600
4400
0000
0800
ENDCHAR
STARTCHAR uni1E89
ENCODING 7817
SWIDTH 667 0
DWIDTH 9 0
BBX 8 8 0 -2
BITMAP
C9
49
4A
5A
6C
48
00
10
ENDCHAR
STARTCHAR uni1E8A
ENCODING 7818
SWIDTH 611 0
DWIDTH 8 0
BBX 9 11 -1 0
BITMAP
0800
0000
7380
2100
1200
0C00
0800
1400
2400
4200
E700
ENDCHAR
STARTCHAR uni1E8B
ENCODING 7819
SWIDTH 444 0
DWIDTH 6 0
BBX 7 8 -1 0
BITMAP
10
00
64
28
10
28
CA
84
ENDCHAR
STARTCHAR uni1E8C
ENCODING 7820
SWIDTH 611 0
DWIDTH 8 0
BBX 9 11 -1 0
BITMAP
1400
0000
7380
2100
1200
0C00
0800
1400
2400
4200
E700
ENDCHAR
STARTCHAR uni1E8D
ENCODING 7821
SWIDTH 444 0
DWIDTH 6 0
BBX 7 8 -1 0
BITMAP
28
00
64
28
10
28
CA
84
ENDCHAR
STARTCHAR uni1E8E
ENCODING 7822
SWIDTH 556 0
DWIDTH 7 0
BBX 8 11 0 0
BITMAP
08
00
77
22
24
28
30
20
20
40
E0
ENDCHAR
STARTCHAR uni1E8F
ENCODING 7823
SWIDTH 444 0
DWIDTH 6 0
BBX 6 11 -1 -3
BITMAP
10
00
64
24
24
28
18
10
10
A0
C0
ENDCHAR
STARTCHAR uni1E90
ENCODING 7824
SWIDTH 556 0
DWIDTH 7 0
BBX 8 12 0 0
BITMAP
0C
14
00
3F
22
04
08
10
20
40
84
FC
ENDCHAR
STARTCHAR uni1E91
ENCODING 7825
SWIDTH 389 0
DWIDTH 5 0
BBX 5 9 0 0
BITMAP
30
50
00
78
50
20
40
90
F0
ENDCHAR
STARTCHAR uni1E92
ENCODING 7826
SWIDTH 556 0
DWIDTH 7 0
BBX 8 11 0 -2
BITMAP
3F
22
04
08
10
20
40
84
FC
00
10
ENDCHAR
STARTCHAR uni1E93
ENCODING 7827
SWIDTH 389 0
DWIDTH 5 0
BBX 5 8 0 -2
BITMAP
78
50
20
40
90
F0
00
20
ENDCHAR
STARTCHAR uni1E94
ENCODING 7828
SWIDTH 556 0
DWIDTH 7 0
BBX 8 11 0 -2
BITMAP
3F
22
04
08
10
20
40
84
FC
00
78
ENDCHAR
STARTCHAR uni1E95
ENCODING 7829
SWIDTH 389 0
DWIDTH 5 0
BBX 5 8 0 -2
BITMAP
78
50
20
40
90
F0
00
F0
ENDCHAR
STARTCHAR uni1E96
ENCODING 7830
SWIDTH 500 0
DWIDTH 6 0
BBX 6 11 0 -2
BITMAP
60
20
40
70
48
48
90
94
98
00
78
ENDCHAR
STARTCHAR uni1E97
ENCODING 7831
SWIDTH 278 0
DWIDTH 4 0
BBX 4 9 0 0
BITMAP
50
00
20
F0
40
40
80
A0
40
ENDCHAR
STARTCHAR uni1E98
ENCODING 7832
SWIDTH 667 0
DWIDTH 9 0
BBX 8 10 0 0
BITMAP
10
28
10
00
C9
49
4A
5A
6C
48
ENDCHAR
STARTCHAR uni1E99
ENCODING 7833
SWIDTH 444 0
DWIDTH 6 0
BBX 6 13 -1 -3
BITMAP
10
28
10
00
64
24
24
28
18
10
10
A0
C0
ENDCHAR
STARTCHAR uni1EA0
ENCODING 7840
SWIDTH 611 0
DWIDTH 8 0
BBX 8 11 -1 -2
BITMAP
06
06
0A
12
12
3E
22
42
E7
00
08
ENDCHAR
STARTCHAR uni1EA1
ENCODING 7841
SWIDTH 500 0
DWIDTH 6 0
BBX 6 8 0 -2
BITMAP
34
48
88
90
94
68
00
10
ENDCHAR
STARTCHAR uni1EA4
ENCODING 7844
SWIDTH 611 0
DWIDTH 8 0
BBX 8 15 -1 0
BITMAP
02
04
00
03
05
00
06
06
0A
12
12
3E
22
42
E7
ENDCHAR
STARTCHAR uni1EA5
ENCODING 7845
SWIDTH 500 0
DWIDTH 7 0
BBX 6 12 0 0
BITMAP
08
10
00
18
28
00
34
48
88
90
94
68
ENDCHAR
STARTCHAR uni1EA6
ENCODING 7846
SWIDTH 611 0
DWIDTH 8 0
BBX 8 15 -1 0
BITMAP
08
04
00
03
05
00
06
06
0A
12
12
3E
22
42
E7
ENDCHAR
STARTCHAR uni1EA7
ENCODING 7847
SWIDTH 500 0
DWIDTH 7 0
BBX 6 12 0 0
BITMAP
20
10
00
18
28
00
34
48
88
90
94
68
ENDCHAR
STARTCHAR uni1EAA
ENCODING 7850
SWIDTH 611 0
DWIDTH 8 0
BBX 8 15 -1 0
BITMAP
0D
16
00
03
05
00
06
06
0A
12
12
3E
22
42
E7
ENDCHAR
STARTCHAR uni1EAB
ENCODING 7851
SWIDTH 500 0
DWIDTH 7 0
BBX 6 12 0 0
BITMAP
34
58
00
18
28
00
34
48
88
90
94
68
ENDCHAR
STARTCHAR uni1EAC
ENCODING 7852
SWIDTH 611 0
DWIDTH 8 0
BBX 8 14 -1 -2
BITMAP
06
0A
00
06
06
0A
12
12
3E
22
42
E7
00
08
ENDCHAR
STARTCHAR uni1EAD
ENCODING 7853
SWIDTH 500 0
DWIDTH 6 0
BBX 6 11 0 -2
BITMAP
18
28
00
34
48
88
90
94
68
00
10
ENDCHAR
STARTCHAR uni1EAE
ENCODING 7854
SWIDTH 611 0
DWIDTH 8 0
BBX 8 16 -1 0
BITMAP
04
08
00
12
12
0C
00
06
06
0A
12
12
3E
22
42
E7
ENDCHAR
STARTCHAR uni1EAF
ENCODING 7855
SWIDTH 500 0
DWIDTH 6 0
BBX 6 13 0 0
BITMAP
10
20
00
48
48
30
00
34
48
88
90
94
68
ENDCHAR
STARTCHAR uni1EB0
ENCODING 7856
SWIDTH 611 0
DWIDTH 8 0
BBX 8 16 -1 0
BITMAP
10
08
00
12
12
0C
00
06
06
0A
12
12
3E
22
42
E7
ENDCHAR
STARTCHAR uni1EB1
ENCODING 7857
SWIDTH 500 0
DWIDTH 6 0
BBX 6 13 0 0
BITMAP
20
10
00
48
48
30
00
34
48
88
90
94
68
ENDCHAR
STARTCHAR uni1EB4
ENCODING 7860
SWIDTH 611 0
DWIDTH 8 0
BBX 8 16 -1 0
BITMAP
1A
2C
00
12
12
0C
00
06
06
0A
12
12
3E
22
42
E7
ENDCHAR
STARTCHAR uni1EB5
ENCODING 7861
SWIDTH 500 0
DWIDTH 6 0
BBX 6 13 0 0
BITMAP
34
58
00
48
48
30
00
34
48
88
90
94
68
ENDCHAR
STARTCHAR uni1EB6
ENCODING 7862
SWIDTH 611 0
DWIDTH 8 0
BBX 8 15 -1 -2
BITMAP
12
12
0C
00
06
06
0A
12
12
3E
22
42
E7
00
08
ENDCHAR
STARTCHAR uni1EB7
ENCODING 7863
SWIDTH 500 0
DWIDTH 6 0
BBX 6 12 0 -2
BITMAP
48
48
30
00
34
48
88
90
94
68
00
10
ENDCHAR
STARTCHAR uni1EB8
ENCODING 7864
SWIDTH 611 0
DWIDTH 8 0
BBX 8 11 0 -2
BITMAP
3F
11
10
22
3C
24
40
42
FC
00
10
ENDCHAR
STARTCHAR uni1EB9
ENCODING 7865
SWIDTH 444 0
DWIDTH 6 0
BBX 5 8 0 -2
BITMAP
30
48
90
E0
88
70
00
20
ENDCHAR
STARTCHAR uni1EBC
ENCODING 7868
SWIDTH 611 0
DWIDTH 8 0
BBX 8 12 0 0
BITMAP
1A
2C
00
3F
11
10
22
3C
24
40
42
FC
ENDCHAR
STARTCHAR uni1EBD
ENCODING 7869
SWIDTH 444 0
DWIDTH 6 0
BBX 6 9 0 0
BITMAP
34
58
00
30
48
90
E0
88
70
ENDCHAR
STARTCHAR uni1EBE
ENCODING 7870
SWIDTH 611 0
DWIDTH 8 0
BBX 8 15 0 0
BITMAP
04
08
00
06
0A
00
3F
11
10
22
3C
24
40
42
FC
ENDCHAR
STARTCHAR uni1EBF
ENCODING 7871
SWIDTH 444 0
DWIDTH 6 0
BBX 5 12 0 0
BITMAP
08
10
00
18
28
00
30
48
90
E0
88
70
ENDCHAR
STARTCHAR uni1EC0
ENCODING 7872
SWIDTH 611 0
DWIDTH 8 0
BBX 8 15 0 0
BITMAP
08
04
00
06
0A
00
3F
11
10
22
3C
24
40
42
FC
ENDCHAR
STARTCHAR uni1EC1
ENCODING 7873
SWIDTH 444 0
DWIDTH 6 0
BBX 5 12 0 0
BITMAP
20
10
00
18
28
00
30
48
90
E0
88
70
ENDCHAR
STARTCHAR uni1EC4
ENCODING 7876
SWIDTH 611 0
DWIDTH 8 0
BBX 8 15 0 0
BITMAP
0D
16
00
06
0A
00
3F
11
10
22
3C
24
40
42
FC
ENDCHAR
STARTCHAR uni1EC5
ENCODING 7877
SWIDTH 444 0
DWIDTH 6 0
BBX 6 12 0 0
BITMAP
34
58
00
18
28
00
30
48
90
E0
88
70
ENDCHAR
STARTCHAR uni1EC6
ENCODING 7878
SWIDTH 611 0
DWIDTH 8 0
BBX 8 14 0 -2
BITMAP
0C
14
00
3F
11
10
22
3C
24
40
42
FC
00
10
ENDCHAR
STARTCHAR uni1EC7
ENCODING 7879
SWIDTH 444 0
DWIDTH 6 0
BBX 5 11 0 -2
BITMAP
30
50
00
30
48
90
E0
88
70
00
20
ENDCHAR
STARTCHAR uni1ECA
ENCODING 7882
SWIDTH 333 0
DWIDTH 5 0
BBX 5 11 0 -2
BITMAP
38
10
10
20
20
20
40
40
E0
00
40
ENDCHAR
STARTCHAR uni1ECB
ENCODING 7883
SWIDTH 278 0
DWIDTH 4 0
BBX 4 11 0 -2
BITMAP
20
00
00
60
20
40
40
90
60
00
40
ENDCHAR
STARTCHAR uni1ECC
ENCODING 7884
SWIDTH 722 0
DWIDTH 7 0
BBX 7 11 0 -2
BITMAP
1C
22
42
42
82
84
84
88
70
00
20
ENDCHAR
STARTCHAR uni1ECD
ENCODING 7885
SWIDTH 500 0
DWIDTH 6 0
BBX 5 8 0 -2
BITMAP
30
48
88
88
90
60
00
20
ENDCHAR
STARTCHAR uni1ED0
ENCODING 7888
SWIDTH 722 0
DWIDTH 7 0
BBX 7 15 0 0
BITMAP
04
08
00
06
0A
00
1C
22
42
42
82
84
84
88
70
ENDCHAR
STARTCHAR uni1ED1
ENCODING 7889
SWIDTH 500 0
DWIDTH 6 0
BBX 5 12 0 0
BITMAP
08
10
00
18
28
00
30
48
88
88
90
60
ENDCHAR
STARTCHAR uni1ED2
ENCODING 7890
SWIDTH 722 0
DWIDTH 7 0
BBX 7 15 0 0
BITMAP
10
08
00
06
0A
00
1C
22
42
42
82
84
84
88
70
ENDCHAR
STARTCHAR uni1ED3
ENCODING 7891
SWIDTH 500 0
DWIDTH 6 0
BBX 5 12 0 0
BITMAP
20
10
00
18
28
00
30
48
88
88
90
60
ENDCHAR
STARTCHAR uni1ED6
ENCODING 7894
SWIDTH 722 0
DWIDTH 7 0
BBX 7 15 0 0
BITMAP
1A
2C
00
06
0A
00
1C
22
42
42
82
84
84
88
70
ENDCHAR
STARTCHAR uni1ED7
ENCODING 7895
SWIDTH 500 0
DWIDTH 6 0
BBX 6 12 0 0
BITMAP
34
58
00
18
28
00
30
48
88
88
90
60
ENDCHAR
STARTCHAR uni1ED8
ENCODING 7896
SWIDTH 722 0
DWIDTH 7 0
BBX 7 14 0 -2
BITMAP
0C
14
00
1C
22
42
42
82
84
84
88
70
00
20
ENDCHAR
STARTCHAR uni1ED9
ENCODING 7897
SWIDTH 500 0
DWIDTH 6 0
BBX 5 11 0 -2
BITMAP
30
50
00
30
48
88
88
90
60
00
20
ENDCHAR
STARTCHAR uni1EDA
ENCODING 7898
SWIDTH 722 0
DWIDTH 7 0
BBX 9 12 0 0
BITMAP
0200
0400
0000
1C80
2280
4300
4200
8200
8400
8400
8800
7000
ENDCHAR
STARTCHAR uni1EDB
ENCODING 7899
SWIDTH 500 0
DWIDTH 6 0
BBX 7 9 0 0
BITMAP
08
10
00
32
4A
8C
88
90
60
ENDCHAR
STARTCHAR uni1EDC
ENCODING 7900
SWIDTH 722 0
DWIDTH 7 0
BBX 9 12 0 0
BITMAP
0800
0400
0000
1C80
2280
4300
4200
8200
8400
8400
8800
7000
ENDCHAR
STARTCHAR uni1EDD
ENCODING 7901
SWIDTH 500 0
DWIDTH 6 0
BBX 7 9 0 0
BITMAP
10
08
00
32
4A
8C
88
90
60
ENDCHAR
STARTCHAR uni1EE0
ENCODING 7904
SWIDTH 722 0
DWIDTH 7 0
BBX 9 12 0 0
BITMAP
0D00
1600
0000
1C80
2280
4300
4200
8200
8400
8400
8800
7000
ENDCHAR
STARTCHAR uni1EE1
ENCODING 7905
SWIDTH 500 0
DWIDTH 6 0
BBX 7 9 0 0
BITMAP
1A
2C
00
32
4A
8C
88
90
60
ENDCHAR
STARTCHAR uni1EE2
ENCODING 7906
SWIDTH 722 0
DWIDTH 7 0
BBX 9 11 0 -2
BITMAP
1C80
2280
4300
4200
8200
8400
8400
8800
7000
0000
1000
ENDCHAR
STARTCHAR uni1EE3
ENCODING 7907
SWIDTH 500 0
DWIDTH 6 0
BBX 7 8 0 -2
BITMAP
32
4A
8C
88
90
60
00
20
ENDCHAR
STARTCHAR uni1EE4
ENCODING 7908
SWIDTH 722 0
DWIDTH 8 0
BBX 9 11 0 -2
BITMAP
7380
2100
2100
4200
4200
4200
8400
8400
7800
0000
1000
ENDCHAR
STARTCHAR uni1EE5
ENCODING 7909
SWIDTH 500 0
DWIDTH 6 0
BBX 6 8 0 -2
BITMAP
C8
48
48
90
94
68
00
10
ENDCHAR
STARTCHAR uni1EE8
ENCODING 7912
SWIDTH 722 0
DWIDTH 8 0
BBX 10 12 0 0
BITMAP
0200
0400
0000
73C0
2140
2180
4200
4200
4200
8400
8400
7800
ENDCHAR
STARTCHAR uni1EE9
ENCODING 7913
SWIDTH 500 0
DWIDTH 6 0
BBX 8 9 0 0
BITMAP
08
10
00
C9
49
4A
90
94
68
ENDCHAR
STARTCHAR uni1EEA
ENCODING 7914
SWIDTH 722 0
DWIDTH 8 0
BBX 10 12 0 0
BITMAP
0800
0400
0000
73C0
2140
2180
4200
4200
4200
8400
8400
7800
ENDCHAR
STARTCHAR uni1EEB
ENCODING 7915
SWIDTH 500 0
DWIDTH 6 0
BBX 8 9 0 0
BITMAP
10
08
00
C9
49
4A
90
94
68
ENDCHAR
STARTCHAR uni1EEE
ENCODING 7918
SWIDTH 722 0
DWIDTH 8 0
BBX 10 12 0 0
BITMAP
0D00
1600
0000
73C0
2140
2180
4200
4200
4200
8400
8400
7800
ENDCHAR
STARTCHAR uni1EEF
ENCODING 7919
SWIDTH 500 0
DWIDTH 6 0
BBX 8 9 0 0
BITMAP
1A
2C
00
C9
49
4A
90
94
68
ENDCHAR
STARTCHAR uni1EF0
ENCODING 7920
SWIDTH 722 0
DWIDTH 8 0
BBX 10 11 0 -2
BITMAP
73C0
2140
2180
4200
4200
4200
8400
8400
7800
0000
1000
ENDCHAR
STARTCHAR uni1EF1
ENCODING 7921
SWIDTH 500 0
DWIDTH 6 0
BBX 8 8 0 -2
BITMAP
C9
49
4A
90
94
68
00
10
ENDCHAR
STARTCHAR Ygrave
ENCODING 7922
SWIDTH 556 0
DWIDTH 7 0
BBX 8 12 0 0
BITMAP
10
08
00
77
22
24
28
30
20
20
40
E0
ENDCHAR
STARTCHAR ygrave
ENCODING 7923
SWIDTH 444 0
DWIDTH 6 0
BBX 6 12 -1 -3
BITMAP
20
10
00
64
24
24
28
18
10
10
A0
C0
ENDCHAR
STARTCHAR uni1EF4
ENCODING 7924
SWIDTH 556 0
DWIDTH 7 0
BBX 8 11 0 -2
BITMAP
77
22
24
28
30
20
20
40
E0
00
20
ENDCHAR
STARTCHAR uni1EF5
ENCODING 7925
SWIDTH 444 0
DWIDTH 6 0
BBX 6 11 -1 -5
BITMAP
64
24
24
28
18
10
10
A0
C0
00
20
ENDCHAR
STARTCHAR uni1EF8
ENCODING 7928
SWIDTH 556 0
DWIDTH 7 0
BBX 8 12 0 0
BITMAP
1A
2C
00
77
22
24
28
30
20
20
40
E0
ENDCHAR
STARTCHAR uni1EF9
ENCODING 7929
SWIDTH 444 0
DWIDTH 6 0
BBX 6 12 -1 -3
BITMAP
34
58
00
64
24
24
28
18
10
10
A0
C0
ENDCHAR
STARTCHAR uni2000
ENCODING 8192
SWIDTH 500 0
DWIDTH 6 0
BBX 1 1 0 0
BITMAP
00
ENDCHAR
STARTCHAR uni2001
ENCODING 8193
SWIDTH 1000 0
DWIDTH 13 0
BBX 1 1 0 0
BITMAP
00
ENDCHAR
STARTCHAR uni2002
ENCODING 8194
SWIDTH 500 0
DWIDTH 6 0
BBX 1 1 0 0
BITMAP
00
ENDCHAR
STARTCHAR uni2003
ENCODING 8195
SWIDTH 1000 0
DWIDTH 13 0
BBX 1 1 0 0
BITMAP
00
ENDCHAR
STARTCHAR uni2004
ENCODING 8196
SWIDTH 333 0
DWIDTH 4 0
BBX 1 1 0 0
BITMAP
00
ENDCHAR
STARTCHAR uni2005
ENCODING 8197
SWIDTH 250 0
DWIDTH 3 0
BBX 1 1 0 0
BITMAP
00
ENDCHAR
STARTCHAR uni2006
ENCODING 8198
SWIDTH 167 0
DWIDTH 2 0
BBX 1 1 0 0
BITMAP
00
ENDCHAR
STARTCHAR uni2007
ENCODING 8199
SWIDTH 500 0
DWIDTH 6 0
BBX 1 1 0 0
BITMAP
00
ENDCHAR
STARTCHAR uni2008
ENCODING 8200
SWIDTH 250 0
DWIDTH 3 0
BBX 1 1 0 0
BITMAP
00
ENDCHAR
STARTCHAR uni2009
ENCODING 8201
SWIDTH 200 0
DWIDTH 3 0
BBX 1 1 0 0
BITMAP
00
ENDCHAR
STARTCHAR uni200A
ENCODING 8202
SWIDTH 100 0
DWIDTH 1 0
BBX 1 1 0 0
BITMAP
00
ENDCHAR
STARTCHAR uni200B
ENCODING 8203
SWIDTH 0 0
DWIDTH 0 0
BBX 1 1 0 0
BITMAP
00
ENDCHAR
STARTCHAR uni2010
ENCODING 8208
SWIDTH 333 0
DWIDTH 4 0
BBX 4 1 -1 3
BITMAP
F0
ENDCHAR
STARTCHAR uni2011
ENCODING 8209
SWIDTH 333 0
DWIDTH 4 0
BBX 4 1 -1 3
BITMAP
F0
ENDCHAR
STARTCHAR figuredash
ENCODING 8210
SWIDTH 500 0
DWIDTH 6 0
BBX 7 1 0 3
BITMAP
FE
ENDCHAR
STARTCHAR endash
ENCODING 8211
SWIDTH 500 0
DWIDTH 6 0
BBX 7 1 0 3
BITMAP
FE
ENDCHAR
STARTCHAR emdash
ENCODING 8212
SWIDTH 889 0
DWIDTH 11 0
BBX 11 1 0 3
BITMAP
FFE0
ENDCHAR
STARTCHAR afii00208
ENCODING 8213
SWIDTH 889 0
DWIDTH 11 0
BBX 11 1 0 3
BITMAP
FFE0
ENDCHAR
STARTCHAR quoteleft
ENCODING 8216
SWIDTH 333 0
DWIDTH 4 0
BBX 2 3 2 6
BITMAP
40
80
80
ENDCHAR
STARTCHAR quoteright
ENCODING 8217
SWIDTH 333 0
DWIDTH 4 0
BBX 2 3 2 6
BITMAP
40
40
80
ENDCHAR
STARTCHAR quotesinglbase
ENCODING 8218
SWIDTH 333 0
DWIDTH 4 0
BBX 2 3 0 -2
BITMAP
40
40
80
ENDCHAR
STARTCHAR quotereversed
ENCODING 8219
SWIDTH 333 0
DWIDTH 4 0
BBX 2 3 2 6
BITMAP
80
80
40
ENDCHAR
STARTCHAR quotedblleft
ENCODING 8220
SWIDTH 556 0
DWIDTH 7 0
BBX 5 3 2 6
BITMAP
48
90
90
ENDCHAR
STARTCHAR quotedblright
ENCODING 8221
SWIDTH 556 0
DWIDTH 7 0
BBX 5 3 1 6
BITMAP
48
48
90
ENDCHAR
STARTCHAR quotedblbase
ENCODING 8222
SWIDTH 556 0
DWIDTH 7 0
BBX 5 3 -1 -2
BITMAP
48
48
90
ENDCHAR
STARTCHAR uni201F
ENCODING 8223
SWIDTH 556 0
DWIDTH 7 0
BBX 5 3 1 6
BITMAP
90
90
48
ENDCHAR
STARTCHAR dagger
ENCODING 8224
SWIDTH 500 0
DWIDTH 5 0
BBX 4 11 1 -1
BITMAP
20
20
20
F0
40
40
40
80
80
80
80
ENDCHAR
STARTCHAR daggerdbl
ENCODING 8225
SWIDTH 500 0
DWIDTH 5 0
BBX 5 11 0 -1
BITMAP
10
10
10
78
20
20
20
F0
40
40
40
ENDCHAR
STARTCHAR bullet
ENCODING 8226
SWIDTH 350 0
DWIDTH 5 0
BBX 3 3 0 2
BITMAP
60
E0
C0
ENDCHAR
STARTCHAR ellipsis
ENCODING 8230
SWIDTH 889 0
DWIDTH 11 0
BBX 9 1 0 0
BITMAP
8880
ENDCHAR
STARTCHAR perthousand
ENCODING 8240
SWIDTH 1000 0
DWIDTH 13 0
BBX 13 9 0 0
BITMAP
7200
9E00
9400
E800
0800
1738
2948
2948
4E70
ENDCHAR
STARTCHAR guilsinglleft
ENCODING 8249
SWIDTH 333 0
DWIDTH 4 0
BBX 3 5 1 1
BITMAP
20
40
80
80
40
ENDCHAR
STARTCHAR guilsinglright
ENCODING 8250
SWIDTH 333 0
DWIDTH 4 0
BBX 3 5 0 1
BITMAP
40
20
20
40
80
ENDCHAR
STARTCHAR fraction
ENCODING 8260
SWIDTH 167 0
DWIDTH 3 0
BBX 5 9 -1 0
BITMAP
08
08
10
10
20
40
40
80
80
ENDCHAR
STARTCHAR oneinferior
ENCODING 8321
SWIDTH 300 0
DWIDTH 3 0
BBX 3 5 0 -3
BITMAP
20
E0
40
40
E0
ENDCHAR
STARTCHAR twoinferior
ENCODING 8322
SWIDTH 300 0
DWIDTH 4 0
BBX 4 5 0 -3
BITMAP
30
50
20
40
E0
ENDCHAR
STARTCHAR threeinferior
ENCODING 8323
SWIDTH 300 0
DWIDTH 4 0
BBX 4 5 0 -3
BITMAP
30
10
60
20
C0
ENDCHAR
STARTCHAR uni20A5
ENCODING 8357
SWIDTH 722 0
DWIDTH 9 0
BBX 9 9 0 -1
BITMAP
0200
0200
B600
4D00
4D00
9A00
9A80
9300
1000
ENDCHAR
STARTCHAR uni20A6
ENCODING 8358
SWIDTH 667 0
DWIDTH 9 0
BBX 10 9 -1 0
BITMAP
31C0
1080
1080
3F00
2900
3F00
4600
4200
E200
ENDCHAR
STARTCHAR uni20A9
ENCODING 8361
SWIDTH 833 0
DWIDTH 10 0
BBX 11 9 0 0
BITMAP
EEE0
4440
4C80
5F80
5500
5F80
6600
6600
4400
ENDCHAR
STARTCHAR Euro
ENCODING 8364
SWIDTH 667 0
DWIDTH 7 0
BBX 9 9 -1 0
BITMAP
0E80
1100
2100
FC00
4000
FC00
4000
4400
3800
ENDCHAR
STARTCHAR uni20AD
ENCODING 8365
SWIDTH 667 0
DWIDTH 8 0
BBX 9 9 -1 0
BITMAP
3B80
1100
1200
2400
FF80
2800
4400
4200
E700
ENDCHAR
STARTCHAR uni2103
ENCODING 8451
SWIDTH 1047 0
DWIDTH 12 0
BBX 13 9 0 0
BITMAP
60E8
9110
9210
6200
0400
0400
0400
0440
0380
ENDCHAR
STARTCHAR uni2109
ENCODING 8457
SWIDTH 991 0
DWIDTH 13 0
BBX 13 9 0 0
BITMAP
61F8
9088
9080
6110
01E0
0120
0200
0200
0700
ENDCHAR
STARTCHAR trademark
ENCODING 8482
SWIDTH 980 0
DWIDTH 14 0
BBX 12 5 1 4
BITMAP
FE30
AB60
23E0
22A0
76B0
ENDCHAR
STARTCHAR uni212A
ENCODING 8490
SWIDTH 667 0
DWIDTH 8 0
BBX 9 9 -1 0
BITMAP
3B80
1100
1200
2400
3800
2800
4400
4200
E700
ENDCHAR
STARTCHAR uni212B
ENCODING 8491
SWIDTH 611 0
DWIDTH 8 0
BBX 8 12 -1 0
BITMAP
02
05
02
06
06
0A
12
12
3E
22
42
E7
ENDCHAR
STARTCHAR uni2132
ENCODING 8498
SWIDTH 611 0
DWIDTH 8 0
BBX 8 9 0 0
BITMAP
07
02
02
24
3C
44
08
88
FC
ENDCHAR
STARTCHAR minus
ENCODING 8722
SWIDTH 675 0
DWIDTH 8 0
BBX 6 1 1 3
BITMAP
FC
ENDCHAR
STARTCHAR fraction
ENCODING 8725
SWIDTH 167 0
DWIDTH 3 0
BBX 5 9 -1 0
BITMAP
08
08
10
10
20
40
40
80
80
ENDCHAR
STARTCHAR periodcentered
ENCODING 8729
SWIDTH 250 0
DWIDTH 3 0
BBX 1 1 1 3
BITMAP
80
ENDCHAR
STARTCHAR uni2236
ENCODING 8758
SWIDTH 333 0
DWIDTH 4 0
BBX 2 6 1 0
BITMAP
40
00
00
00
00
80
ENDCHAR
STARTCHAR uni2259
ENCODING 8793
SWIDTH 675 0
DWIDTH 8 0
BBX 6 6 0 2
BITMAP
18
28
00
FC
00
FC
ENDCHAR
STARTCHAR uni225A
ENCODING 8794
SWIDTH 675 0
DWIDTH 8 0
BBX 6 6 0 2
BITMAP
48
70
00
FC
00
FC
ENDCHAR
STARTCHAR notequal
ENCODING 8800
SWIDTH 675 0
DWIDTH 8 0
BBX 6 9 0 -1
BITMAP
08
08
10
FC
10
FC
20
40
40
ENDCHAR
STARTCHAR equivalence
ENCODING 8801
SWIDTH 675 0
DWIDTH 8 0
BBX 6 5 0 1
BITMAP
FC
00
FC
00
FC
ENDCHAR
STARTCHAR uni2262
ENCODING 8802
SWIDTH 675 0
DWIDTH 8 0
BBX 6 9 0 -1
BITMAP
08
08
FC
10
FC
20
FC
40
40
ENDCHAR
STARTCHAR lessequal
ENCODING 8804
SWIDTH 675 0
DWIDTH 8 0
BBX 6 9 0 -2
BITMAP
04
18
60
80
60
18
04
00
FC
ENDCHAR
STARTCHAR greaterequal
ENCODING 8805
SWIDTH 675 0
DWIDTH 8 0
BBX 6 9 1 -2
BITMAP
80
60
18
04
18
60
80
00
FC
ENDCHAR
STARTCHAR uni226E
ENCODING 8814
SWIDTH 675 0
DWIDTH 8 0
BBX 6 9 0 -1
BITMAP
08
0C
18
70
90
60
38
44
40
ENDCHAR
STARTCHAR uni226F
ENCODING 8815
SWIDTH 675 0
DWIDTH 8 0
BBX 6 9 1 -1
BITMAP
08
88
70
18
14
38
60
C0
40
ENDCHAR
STARTCHAR uni2270
ENCODING 8816
SWIDTH 675 0
DWIDTH 8 0
BBX 6 9 0 -2
BITMAP
0C
18
70
90
70
38
24
40
FC
ENDCHAR
STARTCHAR uni2271
ENCODING 8817
SWIDTH 675 0
DWIDTH 8 0
BBX 6 9 1 -2
BITMAP
88
68
18
14
18
60
A0
40
FC
ENDCHAR
STARTCHAR fi
ENCODING -1
SWIDTH 500 0
DWIDTH 6 0
BBX 9 12 -3 -3
BITMAP
0700
0900
0800
1F00
0900
1200
1200
1480
1300
2000
A000
4000
ENDCHAR
STARTCHAR fl
ENCODING -1
SWIDTH 500 0
DWIDTH 5 0
BBX 8 12 -3 -3
BITMAP
07
09
09
1F
0A
12
14
15
12
20
A0
C0
ENDCHAR
ENDFONT
